<svg width="188" height="189" viewBox="0 0 188 189" fill="none" xmlns="http://www.w3.org/2000/svg">
<g id="logos:whatsapp-icon" clip-path="url(#clip0_123_343)">
<path id="Vector" d="M4.01227 93.3688C4.00786 109.248 8.16736 124.754 16.0766 138.42L3.25586 185.115L51.1606 172.585C64.4104 179.781 79.2559 183.551 94.3419 183.552H94.3815C144.183 183.552 184.723 143.127 184.744 93.4399C184.754 69.3629 175.363 46.7224 158.3 29.689C141.241 12.657 118.552 3.27222 94.3779 3.26123C44.5703 3.26123 4.03356 43.6838 4.013 93.3688" fill="url(#paint0_linear_123_343)"/>
<path id="Vector_2" d="M0.785781 93.3396C0.780641 109.791 5.08922 125.851 13.2804 140.007L0 188.375L49.6225 175.396C63.295 182.833 78.689 186.753 94.3532 186.759H94.3936C145.982 186.759 187.978 144.88 188 93.4144C188.009 68.4722 178.28 45.0179 160.608 27.3742C142.934 9.73277 119.434 0.0102558 94.3936 0C42.7964 0 0.806344 41.873 0.785781 93.3396ZM30.337 137.569L28.4842 134.635C20.6954 122.281 16.5844 108.005 16.5903 93.3455C16.6072 50.5678 51.5076 15.7647 94.423 15.7647C115.206 15.7734 134.737 23.855 149.428 38.5179C164.117 53.1823 172.201 72.6756 172.196 93.4085C172.176 136.186 137.275 170.994 94.3936 170.994H94.3628C80.4001 170.986 66.7062 167.246 54.7638 160.178L51.9218 158.496L22.4748 166.198L30.337 137.568V137.569Z" fill="url(#paint1_linear_123_343)"/>
<path id="Vector_3" d="M70.9984 54.3177C69.2461 50.433 67.4021 50.3546 65.7358 50.2865C64.3714 50.2279 62.8115 50.2323 61.2532 50.2323C59.6934 50.2323 57.1591 50.8176 55.0169 53.1508C52.8725 55.4862 46.8301 61.1298 46.8301 72.6082C46.8301 84.0874 55.2115 95.1806 56.3799 96.7387C57.5498 98.2939 72.5604 122.603 96.3336 131.955C116.091 139.727 120.112 138.181 124.4 137.791C128.689 137.403 138.238 132.149 140.187 126.701C142.137 121.254 142.137 116.584 141.552 115.609C140.967 114.637 139.408 114.053 137.069 112.886C134.729 111.72 123.23 106.075 121.086 105.296C118.942 104.518 117.383 104.13 115.823 106.466C114.263 108.799 109.784 114.053 108.419 115.609C107.055 117.168 105.69 117.362 103.352 116.195C101.012 115.025 93.479 112.564 84.5424 104.617C77.5894 98.4324 72.8952 90.7955 71.5308 88.4593C70.1663 86.1269 71.3846 84.8625 72.5574 83.6999C73.6083 82.6545 74.8972 80.9755 76.0677 79.6137C77.2339 78.2511 77.6232 77.279 78.4031 75.7231C79.1837 74.1657 78.793 72.8031 78.2092 71.6361C77.6232 70.4692 73.0781 58.9307 70.9984 54.3177Z" fill="white"/>
</g>
<defs>
<linearGradient id="paint0_linear_123_343" x1="9077.67" y1="18188.7" x2="9077.67" y2="3.26123" gradientUnits="userSpaceOnUse">
<stop stop-color="#1FAF38"/>
<stop offset="1" stop-color="#60D669"/>
</linearGradient>
<linearGradient id="paint1_linear_123_343" x1="9400" y1="18837.5" x2="9400" y2="0" gradientUnits="userSpaceOnUse">
<stop stop-color="#F9F9F9"/>
<stop offset="1" stop-color="white"/>
</linearGradient>
<clipPath id="clip0_123_343">
<rect width="188" height="189" fill="white"/>
</clipPath>
</defs>
</svg>
