<svg width="181" height="236" viewBox="0 0 181 236" fill="none" xmlns="http://www.w3.org/2000/svg">
<g id="Camada 2">
<g id="BACKGROUND">
<path id="Vector" d="M2.60027 219.69C0.97444 219.682 -0.617019 220.156 -1.97243 221.049C-3.32784 221.943 -4.3862 223.217 -5.01349 224.71C-5.64077 226.203 -5.80881 227.847 -5.49614 229.435C-5.18347 231.023 -4.40412 232.483 -3.25708 233.63C-2.11004 234.777 -0.64678 235.559 0.947286 235.877C2.54135 236.196 4.19456 236.036 5.69735 235.418C7.20015 234.801 8.48485 233.753 9.3889 232.408C10.2929 231.063 10.7756 229.482 10.7756 227.863C10.7756 225.702 9.91556 223.629 8.38346 222.097C6.85135 220.565 4.77191 219.7 2.60027 219.69Z" fill="#00CCB3"/>
<path id="Vector_2" d="M44.9889 219.69C43.3646 219.69 41.7767 220.169 40.4262 221.067C39.0756 221.965 38.023 223.242 37.4014 224.735C36.7798 226.229 36.6173 227.872 36.9342 229.458C37.2511 231.043 38.0331 232.5 39.1817 233.643C40.3302 234.786 41.7936 235.565 43.3867 235.88C44.9798 236.195 46.6309 236.033 48.1315 235.415C49.6322 234.796 50.9148 233.749 51.8172 232.404C52.7196 231.06 53.2012 229.48 53.2012 227.863C53.2012 225.696 52.336 223.617 50.7959 222.084C49.2557 220.551 47.167 219.69 44.9889 219.69Z" fill="#00CCB3"/>
<path id="Vector_3" d="M87.4509 219.69C85.825 219.682 84.2336 220.156 82.8782 221.049C81.5227 221.943 80.4644 223.217 79.8371 224.71C79.2098 226.203 79.0418 227.847 79.3544 229.435C79.6671 231.023 80.4465 232.483 81.5935 233.63C82.7405 234.777 84.2038 235.559 85.7979 235.877C87.3919 236.196 89.0449 236.036 90.5477 235.418C92.0505 234.801 93.3354 233.753 94.2395 232.408C95.1435 231.063 95.6262 229.482 95.6262 227.863C95.6311 226.792 95.4231 225.73 95.0145 224.738C94.6058 223.747 94.0043 222.845 93.2447 222.086C92.4851 221.326 91.5824 220.724 90.5881 220.313C89.5938 219.901 88.5276 219.69 87.4509 219.69Z" fill="#00CCB3"/>
<path id="Vector_4" d="M129.876 219.69C128.25 219.682 126.658 220.156 125.303 221.049C123.948 221.943 122.889 223.217 122.262 224.71C121.635 226.203 121.467 227.847 121.779 229.435C122.092 231.023 122.871 232.483 124.018 233.63C125.165 234.777 126.629 235.559 128.223 235.877C129.817 236.196 131.47 236.036 132.973 235.418C134.475 234.801 135.76 233.753 136.664 232.408C137.568 231.063 138.051 229.482 138.051 227.863C138.051 225.702 137.191 223.629 135.659 222.097C134.127 220.565 132.047 219.7 129.876 219.69Z" fill="#00CCB3"/>
<path id="Vector_5" d="M172.263 219.69C170.639 219.69 169.051 220.169 167.701 221.067C166.35 221.965 165.297 223.242 164.676 224.735C164.054 226.229 163.892 227.872 164.209 229.458C164.525 231.043 165.308 232.5 166.456 233.643C167.605 234.786 169.068 235.565 170.661 235.88C172.254 236.195 173.905 236.033 175.406 235.415C176.907 234.796 178.189 233.749 179.092 232.404C179.994 231.06 180.476 229.48 180.476 227.863C180.476 225.696 179.61 223.617 178.07 222.084C176.53 220.551 174.441 219.69 172.263 219.69Z" fill="#00CCB3"/>
<path id="Vector_6" d="M2.52588 192.062C7.04097 192.062 10.7012 188.419 10.7012 183.925C10.7012 179.432 7.04097 175.789 2.52588 175.789C-1.98921 175.789 -5.64941 179.432 -5.64941 183.925C-5.64941 188.419 -1.98921 192.062 2.52588 192.062Z" fill="#00CCB3"/>
<path id="Vector_7" d="M44.8765 192.062C49.3916 192.062 53.0518 188.419 53.0518 183.925C53.0518 179.432 49.3916 175.789 44.8765 175.789C40.3614 175.789 36.7012 179.432 36.7012 183.925C36.7012 188.419 40.3614 192.062 44.8765 192.062Z" fill="#00CCB3"/>
<path id="Vector_8" d="M87.2271 192.062C91.7421 192.062 95.4024 188.419 95.4024 183.925C95.4024 179.432 91.7421 175.789 87.2271 175.789C82.712 175.789 79.0518 179.432 79.0518 183.925C79.0518 188.419 82.712 192.062 87.2271 192.062Z" fill="#00CCB3"/>
<path id="Vector_9" d="M129.652 175.752C128.024 175.744 126.432 176.219 125.075 177.114C123.719 178.009 122.661 179.285 122.034 180.78C121.408 182.275 121.243 183.922 121.558 185.511C121.874 187.1 122.657 188.56 123.808 189.705C124.958 190.85 126.425 191.63 128.022 191.944C129.618 192.258 131.272 192.093 132.775 191.47C134.277 190.846 135.559 189.793 136.459 188.443C137.358 187.094 137.835 185.508 137.827 183.888C137.817 181.733 136.953 179.67 135.422 178.146C133.891 176.622 131.817 175.762 129.652 175.752Z" fill="#00CCB3"/>
<path id="Vector_10" d="M172.04 175.752C170.414 175.752 168.824 176.232 167.473 177.132C166.122 178.032 165.069 179.31 164.449 180.806C163.828 182.302 163.668 183.947 163.988 185.534C164.308 187.12 165.094 188.577 166.246 189.718C167.398 190.86 168.865 191.635 170.46 191.947C172.056 192.258 173.708 192.091 175.208 191.466C176.708 190.842 177.988 189.789 178.886 188.44C179.784 187.09 180.259 185.507 180.252 183.888C180.242 181.727 179.373 179.658 177.833 178.133C176.294 176.608 174.211 175.752 172.04 175.752Z" fill="#00CCB3"/>
<path id="Vector_11" d="M2.52588 148.124C7.04097 148.124 10.7012 144.481 10.7012 139.987C10.7012 135.494 7.04097 131.851 2.52588 131.851C-1.98921 131.851 -5.64941 135.494 -5.64941 139.987C-5.64941 144.481 -1.98921 148.124 2.52588 148.124Z" fill="#00CCB3"/>
<path id="Vector_12" d="M44.8765 148.124C49.3916 148.124 53.0518 144.481 53.0518 139.987C53.0518 135.494 49.3916 131.851 44.8765 131.851C40.3614 131.851 36.7012 135.494 36.7012 139.987C36.7012 144.481 40.3614 148.124 44.8765 148.124Z" fill="#00CCB3"/>
<path id="Vector_13" d="M87.2271 148.124C91.7421 148.124 95.4024 144.481 95.4024 139.987C95.4024 135.494 91.7421 131.851 87.2271 131.851C82.712 131.851 79.0518 135.494 79.0518 139.987C79.0518 144.481 82.712 148.124 87.2271 148.124Z" fill="#00CCB3"/>
<path id="Vector_14" d="M129.652 131.814C128.024 131.806 126.432 132.281 125.075 133.176C123.719 134.071 122.661 135.347 122.034 136.842C121.408 138.337 121.243 139.984 121.558 141.573C121.874 143.162 122.657 144.622 123.808 145.767C124.958 146.912 126.425 147.692 128.022 148.006C129.618 148.32 131.272 148.155 132.775 147.532C134.277 146.909 135.559 145.855 136.459 144.505C137.358 143.156 137.835 141.57 137.827 139.951C137.817 137.796 136.953 135.732 135.422 134.208C133.891 132.684 131.817 131.824 129.652 131.814Z" fill="#00CCB3"/>
<path id="Vector_15" d="M172.04 131.814C170.414 131.814 168.824 132.294 167.473 133.194C166.122 134.094 165.069 135.373 164.449 136.868C163.828 138.364 163.668 140.009 163.988 141.596C164.308 143.182 165.094 144.639 166.246 145.78C167.398 146.922 168.865 147.697 170.46 148.009C172.056 148.32 173.708 148.153 175.208 147.528C176.708 146.904 177.988 145.851 178.886 144.502C179.784 143.153 180.259 141.569 180.252 139.951C180.242 137.789 179.373 135.72 177.833 134.195C176.294 132.67 174.211 131.814 172.04 131.814Z" fill="#00CCB3"/>
<path id="Vector_16" d="M2.52585 87.8759C0.908926 87.8759 -0.671589 88.3531 -2.01601 89.2472C-3.36043 90.1412 -4.40836 91.412 -5.02713 92.8988C-5.6459 94.3856 -5.80776 96.0216 -5.49232 97.5999C-5.17687 99.1783 -4.39818 100.628 -3.25484 101.766C-2.11151 102.904 -0.654929 103.679 0.930923 103.993C2.51678 104.307 4.16061 104.146 5.65445 103.53C7.14829 102.914 8.42501 101.871 9.32332 100.533C10.2216 99.195 10.7012 97.6218 10.7012 96.0126C10.7012 93.8546 9.83993 91.785 8.30676 90.2591C6.7736 88.7332 4.69407 87.8759 2.52585 87.8759Z" fill="#00CCB3"/>
<path id="Vector_17" d="M44.8394 87.8759C43.2241 87.8832 41.6471 88.3666 40.3076 89.2651C38.968 90.1636 37.9261 91.437 37.313 92.9244C36.6999 94.4118 36.5431 96.0466 36.8628 97.6225C37.1824 99.1985 37.9641 100.645 39.1089 101.779C40.2537 102.913 41.7103 103.685 43.2951 103.996C44.8799 104.306 46.5219 104.143 48.0136 103.526C49.5053 102.909 50.7799 101.866 51.6766 100.529C52.5733 99.1919 53.0517 97.6203 53.0517 96.0126C53.0518 94.9409 52.8391 93.8798 52.426 92.8902C52.0128 91.9006 51.4072 91.002 50.6442 90.246C49.8811 89.4899 48.9755 88.8914 47.9794 88.4846C46.9832 88.0779 45.9161 87.8711 44.8394 87.8759Z" fill="#00CCB3"/>
<path id="Vector_18" d="M87.227 87.8759C85.6101 87.8759 84.0294 88.3531 82.6849 89.2471C81.3405 90.1412 80.2928 91.412 79.674 92.8988C79.0553 94.3855 78.8934 96.0216 79.2089 97.5999C79.5243 99.1783 80.3028 100.628 81.4461 101.766C82.5894 102.904 84.0462 103.679 85.6321 103.993C87.2179 104.307 88.8618 104.146 90.3556 103.53C91.8495 102.914 93.1262 101.871 94.0245 100.533C94.9228 99.195 95.4024 97.6218 95.4024 96.0125C95.4073 94.9426 95.1991 93.8823 94.79 92.8929C94.3809 91.9036 93.7789 91.0046 93.0188 90.2481C92.2587 89.4916 91.3554 88.8924 90.3613 88.4853C89.3672 88.0781 88.302 87.871 87.227 87.8759Z" fill="#00CCB3"/>
<path id="Vector_19" d="M129.578 87.8759C127.961 87.8759 126.38 88.3531 125.036 89.2472C123.691 90.1412 122.643 91.412 122.025 92.8988C121.406 94.3856 121.244 96.0216 121.559 97.5999C121.875 99.1783 122.653 100.628 123.797 101.766C124.94 102.904 126.397 103.679 127.983 103.993C129.569 104.307 131.212 104.146 132.706 103.53C134.2 102.914 135.477 101.871 136.375 100.533C137.273 99.195 137.753 97.6218 137.753 96.0126C137.753 93.8546 136.892 91.785 135.359 90.2591C133.825 88.7332 131.746 87.8759 129.578 87.8759Z" fill="#00CCB3"/>
<path id="Vector_20" d="M171.891 87.8759C170.276 87.8832 168.699 88.3666 167.359 89.2651C166.02 90.1636 164.978 91.437 164.365 92.9244C163.752 94.4118 163.595 96.0466 163.915 97.6225C164.234 99.1985 165.016 100.645 166.161 101.779C167.305 102.913 168.762 103.685 170.347 103.996C171.932 104.306 173.574 104.143 175.065 103.526C176.557 102.909 177.832 101.866 178.728 100.529C179.625 99.1919 180.103 97.6203 180.103 96.0126C180.104 94.9409 179.891 93.8798 179.478 92.8902C179.065 91.9006 178.459 91.002 177.696 90.246C176.933 89.4899 176.027 88.8914 175.031 88.4846C174.035 88.0779 172.968 87.8711 171.891 87.8759Z" fill="#00CCB3"/>
<path id="Vector_21" d="M2.52588 60.2112C7.04097 60.2112 10.7012 56.5683 10.7012 52.0746C10.7012 47.5808 7.04097 43.9379 2.52588 43.9379C-1.98921 43.9379 -5.64941 47.5808 -5.64941 52.0746C-5.64941 56.5683 -1.98921 60.2112 2.52588 60.2112Z" fill="#00CCB3"/>
<path id="Vector_22" d="M44.8765 60.2112C49.3916 60.2112 53.0518 56.5683 53.0518 52.0746C53.0518 47.5808 49.3916 43.9379 44.8765 43.9379C40.3614 43.9379 36.7012 47.5808 36.7012 52.0746C36.7012 56.5683 40.3614 60.2112 44.8765 60.2112Z" fill="#00CCB3"/>
<path id="Vector_23" d="M87.2271 60.2112C91.7421 60.2112 95.4024 56.5683 95.4024 52.0746C95.4024 47.5808 91.7421 43.9379 87.2271 43.9379C82.712 43.9379 79.0518 47.5808 79.0518 52.0746C79.0518 56.5683 82.712 60.2112 87.2271 60.2112Z" fill="#00CCB3"/>
<path id="Vector_24" d="M129.578 43.9379C127.961 43.9379 126.38 44.4152 125.036 45.3092C123.691 46.2033 122.643 47.474 122.025 48.9608C121.406 50.4476 121.244 52.0836 121.559 53.662C121.875 55.2403 122.653 56.6901 123.797 57.8281C124.94 58.966 126.397 59.7409 127.983 60.0549C129.569 60.3688 131.212 60.2077 132.706 59.5918C134.2 58.976 135.477 57.9331 136.375 56.5951C137.273 55.257 137.753 53.6838 137.753 52.0746C137.753 49.9166 136.892 47.847 135.359 46.3211C133.825 44.7952 131.746 43.9379 129.578 43.9379Z" fill="#00CCB3"/>
<path id="Vector_25" d="M171.891 43.938C170.276 43.9453 168.699 44.4287 167.359 45.3272C166.02 46.2257 164.978 47.499 164.365 48.9864C163.752 50.4738 163.595 52.1086 163.915 53.6846C164.234 55.2605 165.016 56.7068 166.161 57.8411C167.305 58.9753 168.762 59.7465 170.347 60.0575C171.932 60.3685 173.574 60.2052 175.065 59.5883C176.557 58.9714 177.832 57.9285 178.728 56.5912C179.625 55.254 180.103 53.6823 180.103 52.0746C180.104 51.003 179.891 49.9419 179.478 48.9523C179.065 47.9627 178.459 47.0641 177.696 46.308C176.933 45.552 176.027 44.9534 175.031 44.5467C174.035 44.1399 172.968 43.9331 171.891 43.938Z" fill="#00CCB3"/>
<path id="Vector_26" d="M2.52588 16.2733C7.04097 16.2733 10.7012 12.6304 10.7012 8.13666C10.7012 3.6429 7.04097 0 2.52588 0C-1.98921 0 -5.64941 3.6429 -5.64941 8.13666C-5.64941 12.6304 -1.98921 16.2733 2.52588 16.2733Z" fill="#00CCB3"/>
<path id="Vector_27" d="M44.8765 16.2733C49.3916 16.2733 53.0518 12.6304 53.0518 8.13666C53.0518 3.6429 49.3916 0 44.8765 0C40.3614 0 36.7012 3.6429 36.7012 8.13666C36.7012 12.6304 40.3614 16.2733 44.8765 16.2733Z" fill="#00CCB3"/>
<path id="Vector_28" d="M87.2271 16.2733C91.7421 16.2733 95.4024 12.6304 95.4024 8.13666C95.4024 3.6429 91.7421 0 87.2271 0C82.712 0 79.0518 3.6429 79.0518 8.13666C79.0518 12.6304 82.712 16.2733 87.2271 16.2733Z" fill="#00CCB3"/>
<path id="Vector_29" d="M129.578 0C127.961 0 126.38 0.47723 125.036 1.3713C123.691 2.26537 122.643 3.53616 122.025 5.02294C121.406 6.50972 121.244 8.14573 121.559 9.72409C121.875 11.3024 122.653 12.7522 123.797 13.8902C124.94 15.0281 126.397 15.803 127.983 16.117C129.569 16.4309 131.212 16.2698 132.706 15.654C134.2 15.0381 135.477 13.9952 136.375 12.6571C137.273 11.3191 137.753 9.74598 137.753 8.1367C137.753 5.97873 136.892 3.90914 135.359 2.38322C133.825 0.857303 131.746 0 129.578 0Z" fill="#00CCB3"/>
<path id="Vector_30" d="M171.891 2.30138e-05C170.276 0.00733074 168.699 0.490769 167.359 1.38927C166.02 2.28777 164.978 3.56106 164.365 5.04847C163.752 6.53588 163.595 8.17071 163.915 9.74663C164.234 11.3225 165.016 12.7689 166.161 13.9031C167.305 15.0374 168.762 15.8087 170.347 16.1196C171.932 16.4306 173.574 16.2673 175.065 15.6504C176.557 15.0335 177.832 13.9906 178.728 12.6533C179.625 11.3161 180.103 9.74442 180.103 8.13672C180.104 7.06508 179.891 6.00398 179.478 5.01438C179.065 4.02478 178.459 3.12614 177.696 2.3701C176.933 1.61405 176.027 1.0155 175.031 0.60878C174.035 0.202056 172.968 -0.00484808 171.891 2.30138e-05Z" fill="#00CCB3"/>
</g>
</g>
</svg>
