<svg width="81" height="111" viewBox="0 0 81 111" fill="none" xmlns="http://www.w3.org/2000/svg">
<g id="elemento 1 5" clip-path="url(#clip0_288_7)">
<g id="Camada 2">
<g id="BACKGROUND">
<path id="Vector" d="M3.86211 87.7256C3.09404 87.7222 2.34222 87.9447 1.7019 88.3651C1.06159 88.7854 0.561601 89.3846 0.265264 90.0867C-0.0310734 90.7889 -0.110456 91.5624 0.0372534 92.3093C0.184963 93.0562 0.55314 93.7428 1.09502 94.2822C1.63689 94.8216 2.32805 95.1894 3.08111 95.3392C3.83417 95.4889 4.61516 95.4138 5.32511 95.1234C6.03505 94.8329 6.64206 94.3402 7.06915 93.7076C7.49624 93.0751 7.72424 92.3311 7.72425 91.57C7.72656 91.066 7.62833 90.5665 7.43527 90.1001C7.24222 89.6338 6.95806 89.2099 6.5992 88.8527C6.24034 88.4954 5.81379 88.212 5.34407 88.0186C4.87435 87.8252 4.37077 87.7256 3.86211 87.7256Z" fill="#00CCB3"/>
<path id="Vector_2" d="M23.9043 87.7256C23.1363 87.7222 22.3845 87.9447 21.7441 88.3651C21.1038 88.7854 20.6038 89.3846 20.3075 90.0867C20.0112 90.7889 19.9318 91.5624 20.0795 92.3093C20.2272 93.0562 20.5954 93.7428 21.1373 94.2822C21.6791 94.8216 22.3704 95.1894 23.1235 95.3392C23.8765 95.4889 24.6575 95.4138 25.3674 95.1234C26.0774 94.8329 26.6843 94.3402 27.1114 93.7076C27.5385 93.0751 27.7665 92.3311 27.7665 91.57C27.7665 90.5534 27.3602 89.5782 26.6364 88.8577C25.9126 88.1373 24.9303 87.7302 23.9043 87.7256Z" fill="#00CCB3"/>
<path id="Vector_3" d="M43.929 87.7256C43.1617 87.7256 42.4115 87.9511 41.7735 88.3735C41.1355 88.7959 40.6382 89.3963 40.3446 90.0988C40.051 90.8013 39.9742 91.5742 40.1239 92.32C40.2736 93.0657 40.643 93.7507 41.1856 94.2884C41.7282 94.826 42.4195 95.1921 43.1721 95.3405C43.9247 95.4888 44.7047 95.4127 45.4137 95.1217C46.1226 94.8307 46.7285 94.338 47.1548 93.7058C47.5811 93.0736 47.8086 92.3303 47.8086 91.57C47.8086 90.5504 47.3999 89.5725 46.6723 88.8516C45.9447 88.1306 44.958 87.7256 43.929 87.7256Z" fill="#00CCB3"/>
<path id="Vector_4" d="M63.9886 87.7256C63.2205 87.7222 62.4687 87.9447 61.8284 88.3651C61.1881 88.7854 60.6881 89.3846 60.3917 90.0867C60.0954 90.7889 60.016 91.5624 60.1637 92.3093C60.3114 93.0562 60.6796 93.7428 61.2215 94.2822C61.7634 94.8216 62.4546 95.1894 63.2077 95.3392C63.9607 95.4889 64.7416 95.4138 65.4516 95.1234C66.1615 94.8329 66.7685 94.3402 67.1956 93.7076C67.6227 93.0751 67.8507 92.3311 67.8507 91.57C67.853 91.066 67.7548 90.5665 67.5617 90.1001C67.3687 89.6338 67.0845 89.2099 66.7257 88.8527C66.3668 88.4954 65.9404 88.212 65.4706 88.0186C65.0009 87.8252 64.4972 87.7256 63.9886 87.7256Z" fill="#00CCB3"/>
<path id="Vector_5" d="M84.0308 87.7256C83.2627 87.7222 82.5109 87.9447 81.8706 88.3651C81.2303 88.7854 80.7303 89.3846 80.434 90.0867C80.1376 90.7889 80.0582 91.5624 80.206 92.3093C80.3537 93.0562 80.7218 93.7428 81.2637 94.2822C81.8056 94.8216 82.4969 95.1894 83.2499 95.3392C84.003 95.4889 84.7839 95.4138 85.4938 95.1234C86.2037 94.8329 86.8108 94.3402 87.2379 93.7076C87.6649 93.0751 87.8929 92.3311 87.893 91.57C87.893 90.5534 87.4867 89.5782 86.7629 88.8577C86.0391 88.1373 85.0567 87.7302 84.0308 87.7256Z" fill="#00CCB3"/>
<path id="Vector_6" d="M3.86211 70.1597C3.09329 70.1563 2.34077 70.3793 1.70008 70.8004C1.05938 71.2215 0.559363 71.8217 0.263545 72.5249C-0.0322717 73.228 -0.110603 74.0025 0.038535 74.7498C0.187673 75.4972 0.55759 76.1838 1.10123 76.7224C1.64486 77.2611 2.33771 77.6276 3.09193 77.7754C3.84614 77.9232 4.62769 77.8456 5.33732 77.5525C6.04695 77.2593 6.65275 76.7639 7.07772 76.129C7.50268 75.4942 7.72772 74.7485 7.72425 73.9867C7.72425 73.4841 7.62432 72.9865 7.43023 72.5222C7.23614 72.0579 6.95161 71.636 6.59298 71.2806C6.23435 70.9252 5.80857 70.6433 5.34 70.451C4.87142 70.2587 4.36929 70.1597 3.86211 70.1597Z" fill="#00CCB3"/>
<path id="Vector_7" d="M23.8692 77.8312C26.0022 77.8312 27.7313 76.1178 27.7313 74.0042C27.7313 71.8906 26.0022 70.1772 23.8692 70.1772C21.7362 70.1772 20.0071 71.8906 20.0071 74.0042C20.0071 76.1178 21.7362 77.8312 23.8692 77.8312Z" fill="#00CCB3"/>
<path id="Vector_8" d="M43.8763 77.8312C46.0093 77.8312 47.7384 76.1178 47.7384 74.0042C47.7384 71.8906 46.0093 70.1772 43.8763 70.1772C41.7433 70.1772 40.0142 71.8906 40.0142 74.0042C40.0142 76.1178 41.7433 77.8312 43.8763 77.8312Z" fill="#00CCB3"/>
<path id="Vector_9" d="M63.8834 77.8312C66.0164 77.8312 67.7455 76.1178 67.7455 74.0042C67.7455 71.8906 66.0164 70.1772 63.8834 70.1772C61.7504 70.1772 60.0212 71.8906 60.0212 74.0042C60.0212 76.1178 61.7504 77.8312 63.8834 77.8312Z" fill="#00CCB3"/>
<path id="Vector_10" d="M83.9253 70.1597C83.1564 70.1563 82.4039 70.3793 81.7632 70.8004C81.1225 71.2215 80.6225 71.8217 80.3267 72.5249C80.0309 73.228 79.9527 74.0025 80.1018 74.7498C80.2509 75.4972 80.6207 76.1838 81.1644 76.7224C81.708 77.2611 82.401 77.6276 83.1552 77.7754C83.9094 77.9232 84.6908 77.8456 85.4005 77.5525C86.1101 77.2593 86.7159 76.7639 87.1409 76.129C87.5658 75.4942 87.7909 74.7485 87.7874 73.9867C87.7828 72.9731 87.3744 72.0024 86.6511 71.2857C85.9278 70.569 84.9481 70.1643 83.9253 70.1597Z" fill="#00CCB3"/>
<path id="Vector_11" d="M3.86211 52.5938C3.09329 52.5903 2.34077 52.8133 1.70008 53.2344C1.05938 53.6555 0.559363 54.2558 0.263545 54.959C-0.0322717 55.6621 -0.110603 56.4365 0.038535 57.1839C0.187673 57.9312 0.55759 58.6178 1.10123 59.1565C1.64486 59.6952 2.33771 60.0617 3.09193 60.2095C3.84614 60.3573 4.62769 60.2797 5.33732 59.9866C6.04695 59.6934 6.65275 59.198 7.07772 58.5631C7.50268 57.9283 7.72772 57.1826 7.72425 56.4208C7.72425 55.9182 7.62432 55.4206 7.43023 54.9563C7.23614 54.492 6.95161 54.0701 6.59298 53.7147C6.23435 53.3593 5.80857 53.0774 5.34 52.8851C4.87142 52.6928 4.36929 52.5938 3.86211 52.5938Z" fill="#00CCB3"/>
<path id="Vector_12" d="M23.8692 60.2648C26.0022 60.2648 27.7313 58.5514 27.7313 56.4378C27.7313 54.3242 26.0022 52.6108 23.8692 52.6108C21.7362 52.6108 20.0071 54.3242 20.0071 56.4378C20.0071 58.5514 21.7362 60.2648 23.8692 60.2648Z" fill="#00CCB3"/>
<path id="Vector_13" d="M43.8763 60.2648C46.0093 60.2648 47.7384 58.5514 47.7384 56.4378C47.7384 54.3242 46.0093 52.6108 43.8763 52.6108C41.7433 52.6108 40.0142 54.3242 40.0142 56.4378C40.0142 58.5514 41.7433 60.2648 43.8763 60.2648Z" fill="#00CCB3"/>
<path id="Vector_14" d="M63.8834 60.2648C66.0164 60.2648 67.7455 58.5514 67.7455 56.4378C67.7455 54.3242 66.0164 52.6108 63.8834 52.6108C61.7504 52.6108 60.0212 54.3242 60.0212 56.4378C60.0212 58.5514 61.7504 60.2648 63.8834 60.2648Z" fill="#00CCB3"/>
<path id="Vector_15" d="M83.9253 52.5938C83.1564 52.5903 82.4039 52.8133 81.7632 53.2344C81.1225 53.6555 80.6225 54.2558 80.3267 54.959C80.0309 55.6621 79.9527 56.4365 80.1018 57.1839C80.2509 57.9312 80.6207 58.6178 81.1644 59.1565C81.708 59.6952 82.401 60.0617 83.1552 60.2095C83.9094 60.3573 84.6908 60.2797 85.4005 59.9866C86.1101 59.6934 86.7159 59.198 87.1409 58.5631C87.5658 57.9283 87.7909 57.1826 87.7874 56.4208C87.7828 55.4072 87.3744 54.4365 86.6511 53.7198C85.9278 53.003 84.9481 52.5984 83.9253 52.5938Z" fill="#00CCB3"/>
<path id="Vector_16" d="M3.86211 35.0625C3.09825 35.0625 2.35149 35.287 1.71636 35.7075C1.08124 36.128 0.586291 36.7257 0.293976 37.425C0.00166097 38.1243 -0.0748052 38.8938 0.0742156 39.6361C0.223236 40.3785 0.590994 41.0604 1.13112 41.5956C1.67125 42.1308 2.35946 42.4953 3.10864 42.643C3.85782 42.7906 4.63428 42.7148 5.34 42.4252C6.04571 42.1355 6.64895 41.645 7.07333 41.0157C7.4977 40.3863 7.72425 39.6464 7.72425 38.8895C7.72657 38.3863 7.62822 37.8876 7.43495 37.4223C7.24168 36.9569 6.95733 36.5341 6.59823 36.1783C6.23914 35.8225 5.8124 35.5407 5.34278 35.3492C4.87316 35.1576 4.36994 35.0602 3.86211 35.0625Z" fill="#00CCB3"/>
<path id="Vector_17" d="M23.8692 35.0625C23.1053 35.0625 22.3587 35.2869 21.7236 35.7074C21.0884 36.128 20.5934 36.7257 20.3011 37.425C20.0087 38.1242 19.9323 38.8937 20.0813 39.6361C20.2303 40.3785 20.5982 41.0604 21.1383 41.5956C21.6784 42.1308 22.3665 42.4953 23.1157 42.6429C23.8649 42.7906 24.6415 42.7148 25.3472 42.4251C26.0529 42.1355 26.656 41.645 27.0804 41.0156C27.5048 40.3863 27.7313 39.6464 27.7313 38.8895C27.7313 37.8745 27.3245 36.9011 26.6002 36.1834C25.8759 35.4657 24.8935 35.0625 23.8692 35.0625Z" fill="#00CCB3"/>
<path id="Vector_18" d="M43.8588 35.0625C43.0957 35.066 42.3507 35.2933 41.7179 35.7159C41.0851 36.1385 40.5928 36.7374 40.3032 37.437C40.0136 38.1366 39.9395 38.9055 40.0905 39.6467C40.2415 40.388 40.6108 41.0682 41.1516 41.6017C41.6924 42.1352 42.3805 42.4979 43.1292 42.6442C43.8779 42.7905 44.6536 42.7137 45.3583 42.4235C46.063 42.1333 46.6652 41.6428 47.0888 41.0139C47.5124 40.3849 47.7384 39.6457 47.7384 38.8895C47.7384 38.3855 47.638 37.8864 47.4428 37.421C47.2476 36.9555 46.9615 36.5328 46.601 36.1773C46.2405 35.8217 45.8127 35.5401 45.3421 35.3488C44.8715 35.1575 44.3674 35.0602 43.8588 35.0625Z" fill="#00CCB3"/>
<path id="Vector_19" d="M63.8831 35.0625C63.1192 35.0625 62.3725 35.287 61.7374 35.7075C61.1022 36.128 60.6073 36.7257 60.315 37.425C60.0227 38.1243 59.9462 38.8938 60.0952 39.6361C60.2442 40.3785 60.612 41.0604 61.1521 41.5956C61.6922 42.1308 62.3805 42.4953 63.1296 42.643C63.8788 42.7906 64.6554 42.7148 65.3611 42.4252C66.0668 42.1355 66.6699 41.645 67.0943 41.0157C67.5187 40.3863 67.7452 39.6464 67.7452 38.8895C67.7476 38.3863 67.6492 37.8876 67.4559 37.4223C67.2627 36.9569 66.9783 36.5341 66.6192 36.1783C66.2601 35.8225 65.8334 35.5407 65.3638 35.3492C64.8942 35.1576 64.3909 35.0602 63.8831 35.0625Z" fill="#00CCB3"/>
<path id="Vector_20" d="M83.8902 35.0625C83.1263 35.0625 82.3797 35.2869 81.7445 35.7074C81.1094 36.128 80.6144 36.7257 80.3221 37.425C80.0297 38.1242 79.9533 38.8937 80.1023 39.6361C80.2513 40.3785 80.6191 41.0604 81.1592 41.5956C81.6993 42.1308 82.3875 42.4953 83.1367 42.6429C83.8859 42.7906 84.6625 42.7148 85.3682 42.4251C86.0739 42.1355 86.677 41.645 87.1014 41.0156C87.5258 40.3863 87.7523 39.6464 87.7523 38.8895C87.7523 37.8745 87.3455 36.9011 86.6212 36.1834C85.8969 35.4657 84.9145 35.0625 83.8902 35.0625Z" fill="#00CCB3"/>
<path id="Vector_21" d="M3.86211 17.5313C3.09825 17.5313 2.35149 17.7557 1.71636 18.1763C1.08124 18.5968 0.586291 19.1945 0.293976 19.8937C0.00166097 20.593 -0.0748052 21.3625 0.0742156 22.1049C0.223236 22.8472 0.590994 23.5291 1.13112 24.0644C1.67125 24.5996 2.35946 24.9641 3.10864 25.1117C3.85782 25.2594 4.63428 25.1836 5.34 24.8939C6.04571 24.6043 6.64895 24.1138 7.07333 23.4844C7.4977 22.8551 7.72425 22.1152 7.72425 21.3583C7.72657 20.8551 7.62822 20.3564 7.43495 19.891C7.24168 19.4257 6.95733 19.0029 6.59823 18.6471C6.23914 18.2912 5.8124 18.0094 5.34278 17.8179C4.87316 17.6264 4.36994 17.529 3.86211 17.5313Z" fill="#00CCB3"/>
<path id="Vector_22" d="M23.8692 25.1852C26.0022 25.1852 27.7313 23.4718 27.7313 21.3582C27.7313 19.2446 26.0022 17.5312 23.8692 17.5312C21.7362 17.5312 20.0071 19.2446 20.0071 21.3582C20.0071 23.4718 21.7362 25.1852 23.8692 25.1852Z" fill="#00CCB3"/>
<path id="Vector_23" d="M43.8763 25.1852C46.0093 25.1852 47.7384 23.4718 47.7384 21.3582C47.7384 19.2446 46.0093 17.5312 43.8763 17.5312C41.7433 17.5312 40.0142 19.2446 40.0142 21.3582C40.0142 23.4718 41.7433 25.1852 43.8763 25.1852Z" fill="#00CCB3"/>
<path id="Vector_24" d="M63.8834 25.1852C66.0164 25.1852 67.7455 23.4718 67.7455 21.3582C67.7455 19.2446 66.0164 17.5312 63.8834 17.5312C61.7504 17.5312 60.0212 19.2446 60.0212 21.3582C60.0212 23.4718 61.7504 25.1852 63.8834 25.1852Z" fill="#00CCB3"/>
<path id="Vector_25" d="M83.8902 17.5313C83.1263 17.5312 82.3797 17.7557 81.7445 18.1762C81.1094 18.5967 80.6144 19.1944 80.3221 19.8937C80.0297 20.593 79.9533 21.3625 80.1023 22.1048C80.2513 22.8472 80.6191 23.5291 81.1592 24.0643C81.6993 24.5995 82.3875 24.964 83.1367 25.1117C83.8859 25.2594 84.6625 25.1836 85.3682 24.8939C86.0739 24.6042 86.677 24.1137 87.1014 23.4844C87.5258 22.8551 87.7523 22.1151 87.7523 21.3582C87.7523 20.3433 87.3455 19.3698 86.6212 18.6521C85.8969 17.9344 84.9145 17.5312 83.8902 17.5313Z" fill="#00CCB3"/>
<path id="Vector_26" d="M3.86211 3.98938e-05C3.09825 3.98938e-05 2.35149 0.2245 1.71636 0.645015C1.08124 1.06553 0.586291 1.66323 0.293976 2.36252C0.00166097 3.06181 -0.0748052 3.83129 0.0742156 4.57366C0.223236 5.31602 0.590994 5.99792 1.13112 6.53313C1.67125 7.06835 2.35946 7.43281 3.10864 7.58048C3.85782 7.72814 4.63428 7.65237 5.34 7.36272C6.04571 7.07306 6.64895 6.58253 7.07333 5.95319C7.4977 5.32384 7.72425 4.58395 7.72425 3.82705C7.72657 3.32384 7.62822 2.82514 7.43495 2.35979C7.24168 1.89444 6.95733 1.47164 6.59823 1.11581C6.23914 0.759984 5.8124 0.478189 5.34278 0.286681C4.87316 0.0951722 4.36994 -0.00226317 3.86211 3.98938e-05Z" fill="#00CCB3"/>
<path id="Vector_27" d="M23.8692 7.65397C26.0022 7.65397 27.7313 5.94057 27.7313 3.82699C27.7313 1.7134 26.0022 0 23.8692 0C21.7362 0 20.0071 1.7134 20.0071 3.82699C20.0071 5.94057 21.7362 7.65397 23.8692 7.65397Z" fill="#00CCB3"/>
<path id="Vector_28" d="M43.8763 7.65397C46.0093 7.65397 47.7384 5.94057 47.7384 3.82699C47.7384 1.7134 46.0093 0 43.8763 0C41.7433 0 40.0142 1.7134 40.0142 3.82699C40.0142 5.94057 41.7433 7.65397 43.8763 7.65397Z" fill="#00CCB3"/>
<path id="Vector_29" d="M63.8831 7.65397C66.0161 7.65397 67.7452 5.94057 67.7452 3.82699C67.7452 1.7134 66.0161 0 63.8831 0C61.7501 0 60.021 1.7134 60.021 3.82699C60.021 5.94057 61.7501 7.65397 63.8831 7.65397Z" fill="#00CCB3"/>
<path id="Vector_30" d="M83.8902 0C83.1263 0 82.3797 0.22446 81.7445 0.644975C81.1094 1.06549 80.6144 1.66319 80.3221 2.36248C80.0297 3.06177 79.9533 3.83125 80.1023 4.57362C80.2513 5.31598 80.6191 5.99788 81.1592 6.53309C81.6993 7.06831 82.3875 7.43277 83.1367 7.58044C83.8859 7.7281 84.6625 7.65233 85.3682 7.36268C86.0739 7.07302 86.677 6.58249 87.1014 5.95315C87.5258 5.32381 87.7523 4.58391 87.7523 3.82701C87.7523 2.81203 87.3455 1.83862 86.6212 1.12092C85.8969 0.403223 84.9145 0 83.8902 0Z" fill="#00CCB3"/>
</g>
</g>
</g>
<defs>
<clipPath id="clip0_288_7">
<rect width="137" height="111" fill="white"/>
</clipPath>
</defs>
</svg>
