<svg width="179" height="56" viewBox="0 0 179 56" fill="none" xmlns="http://www.w3.org/2000/svg">
<g id="tint 1" clip-path="url(#clip0_467_2)">
<g id="Group">
<g id="Camada 2">
<g id="OBJECTS">
<g id="Group_2" style="mix-blend-mode:multiply">
<path id="Vector" d="M0.443399 15.7645C0.801713 16.0232 1.20906 16.2118 1.55506 16.4807C1.6374 16.5624 1.68255 16.6646 1.68292 16.7702C1.68328 16.8758 1.63883 16.9784 1.55705 17.0607C1.39759 17.2812 1.10268 17.5322 1.65754 17.6103C2.04319 17.6339 2.43057 17.6326 2.81603 17.6063C2.97308 17.6035 3.12869 17.6307 3.27022 17.6858C3.41176 17.7409 3.53521 17.8224 3.63054 17.9235C4.02766 18.2687 4.51554 18.5368 5.05802 18.7081C5.6005 18.8793 6.18367 18.9493 6.76436 18.9128C7.35592 18.9107 7.02424 19.2219 6.87708 19.4324C6.79939 19.5161 6.75752 19.6181 6.75788 19.7228C6.75824 19.8275 6.80081 19.9292 6.87907 20.0124C6.87907 20.0124 7.11298 19.9416 7.24848 19.9211C7.38397 19.9007 7.81506 19.8192 8.09835 19.7682C8.09876 19.8882 8.22259 20.0578 8.29657 20.0675C8.73715 20.1472 9.19009 20.1726 9.64019 20.1429C10.1578 20.1411 10.4427 20.5701 10.8741 20.5587C10.9461 20.5782 11.0241 20.578 11.0959 20.5579C11.3419 20.4071 11.5384 20.2264 11.8354 20.5554C12.1479 20.8828 12.5536 21.1439 13.0178 21.3164C13.4819 21.489 13.9907 21.5678 14.5009 21.5462C14.6976 21.5343 14.895 21.5583 15.0787 21.6165C15.2623 21.6747 15.4274 21.7656 15.5619 21.8826C15.6514 21.9442 15.7652 21.9779 15.8827 21.9775C16.0002 21.9771 16.1137 21.9426 16.2028 21.8804C16.5965 21.679 16.9901 21.4576 17.4331 21.2461C17.876 21.0346 18.1352 21.1437 18.2846 21.5832C18.5088 22.2624 19.2343 21.7999 19.6669 22.1385C19.9245 22.3374 20.2671 22.4478 20.6231 22.4466C20.979 22.4454 21.3208 22.3326 21.5771 22.1319C21.7506 22.0159 21.9681 21.9522 22.1927 21.9514C22.4173 21.9506 22.6353 22.0129 22.8096 22.1277C23.2788 22.396 23.2653 22.0461 23.3013 21.776C23.2741 21.6335 23.2736 21.4886 23.2999 21.346C23.3377 21.2914 23.3888 21.2436 23.4501 21.2055C23.5114 21.1675 23.5817 21.14 23.6565 21.1247C23.9397 21.0538 24.1006 21.2332 24.1383 21.4531C24.1763 21.7422 24.1773 22.0337 24.1413 22.3231C24.1417 22.4531 24.0561 22.6534 23.9577 22.6837C23.4037 22.8856 22.9865 23.4071 22.296 23.2994C21.457 23.3091 20.6226 23.2003 19.83 22.9779C19.2449 22.845 18.6318 22.813 18.0303 22.8841C17.2315 23.5568 16.2814 23.2301 15.3818 23.2532C14.9251 23.2035 14.4607 23.2255 14.014 23.3179C13.4163 23.6022 12.7466 23.7721 12.0561 23.8146C11.9452 23.815 11.7737 24.1256 11.7497 24.3157C11.751 24.7057 11.6412 25.0161 11.1237 25.0478C10.9018 25.0486 10.606 25.0496 10.4957 25.21C10.2134 25.561 9.43626 25.3536 9.48748 25.9135C9.56425 26.7332 10.3144 26.2706 10.7215 26.3692C11.095 26.4286 11.4749 26.4574 11.8556 26.4553C11.9173 26.4551 11.9792 26.5449 12.041 26.5847C12.1027 26.6245 11.9551 26.705 11.9058 26.7152C11.3783 26.7715 10.8856 26.9608 10.4974 27.2564C10.1093 27.552 9.84514 27.939 9.74238 28.3626C9.74286 28.5026 9.37324 28.5339 9.17633 28.6145C8.97942 28.6952 8.93053 28.8154 9.07886 28.9449C9.22721 29.0744 9.21605 29.4144 9.08127 29.6449C9.08127 29.6449 9.22988 29.8544 9.32851 29.864C9.38617 29.8739 9.44572 29.8741 9.5035 29.8646C9.56129 29.8551 9.61608 29.8361 9.66449 29.8088C9.71291 29.7814 9.75391 29.7463 9.78499 29.7057C9.81605 29.665 9.83653 29.6196 9.84514 29.5723C9.93045 29.292 9.9417 28.9819 10.3618 29.2905C10.7819 29.599 10.7818 29.589 11.5949 29.4862C11.903 29.4852 12.2231 29.3841 12.4827 29.6032C12.6653 29.7727 12.9132 29.8872 13.1863 29.928C13.4593 29.9688 13.7415 29.9336 13.987 29.828C14.6883 29.4556 15.219 29.6838 15.8727 29.8215C16.6891 29.9145 17.5156 29.9351 18.3378 29.8831C19.0156 29.8807 19.7301 29.7683 20.311 30.2663C20.9881 30.044 21.3972 30.7526 22.0134 30.7304C23.2458 30.7262 24.6027 31.0615 25.8204 30.3574C26.091 30.1964 26.3635 30.6155 26.6224 30.6246C26.8812 30.6337 27.1391 30.3628 27.41 30.2819C28.1073 30.1247 28.8437 30.1221 29.5421 30.2746C29.6234 30.2829 29.7018 30.3042 29.7727 30.3374C29.8437 30.3706 29.9057 30.415 29.9552 30.4679C30.0048 30.5208 30.0408 30.5812 30.0612 30.6455C30.0816 30.7099 30.0859 30.777 30.074 30.8427L30.0777 31.9327C30.0795 32.4327 29.7722 32.6738 29.3769 32.4251C29.0204 32.2108 28.5874 32.0964 28.1434 32.0994C27.6504 32.1011 27.5764 32.1013 27.4182 32.6819C27.1502 33.6028 26.9168 33.8136 26.0665 33.8365C25.2162 33.8595 24.0702 33.9034 23.0717 33.8468C22.4185 33.8491 21.9132 33.8508 21.6692 34.5816C21.6698 34.7516 21.2876 34.713 21.0653 34.5837C20.4354 34.1759 20.4231 34.1859 19.3388 34.2597C18.8828 34.2612 18.3165 34.4432 17.9954 34.2643C17.6187 34.0481 17.1681 33.9327 16.7064 33.9343C16.2447 33.9359 15.7948 34.0543 15.4196 34.2731C15.0135 34.4345 14.4833 34.3663 14.4072 33.7366C14.407 33.6766 14.3205 33.6069 14.2588 33.5771C14.197 33.5473 14.1357 33.6475 14.1113 33.6976C13.9972 33.87 13.9269 34.0592 13.9046 34.254C13.8823 34.4488 13.9085 34.6452 13.9815 34.8314C14.0546 35.0177 14.1731 35.1902 14.3299 35.3385C14.4868 35.4868 14.6788 35.608 14.8946 35.6949C15.4125 35.9653 15.991 36.1502 16.5972 36.2391C16.6712 36.2388 16.7212 36.4487 16.7709 36.5785C16.1803 36.8605 15.627 37.2424 14.9107 36.8049C14.6528 36.6735 14.3519 36.6083 14.0474 36.6179C12.741 36.6223 11.4469 36.6268 10.1529 36.6312C10.0912 36.6314 9.98073 36.7518 9.98076 36.7618C9.9808 36.7718 10.1296 37.0213 10.2035 37.0311C11.0445 37.0831 11.8894 37.0802 12.73 37.0224C13.4815 36.9298 13.9636 37.3481 14.6543 37.5158C14.8641 37.5751 14.8274 37.6652 14.7539 37.8054C14.6805 37.9457 14.8153 37.7452 14.5447 37.8962L14.151 38.0775C14.2498 38.1572 14.3366 38.3069 14.4352 38.3165C15.1872 38.3739 15.9509 38.2413 16.6427 38.7189C16.8112 38.8014 17.0106 38.8322 17.2048 38.8059C17.3991 38.7796 17.5755 38.6978 17.7021 38.5753C18.1201 38.2639 18.1335 38.5738 18.1962 38.8936C18.1965 38.9736 18.4434 39.0928 18.468 39.0827C18.9965 38.6609 19.6132 38.8087 20.2169 38.7567C20.8207 38.7046 21.2544 39.3931 21.8068 38.7512C21.8068 38.7512 22.1149 38.7501 22.2139 38.8598C22.6217 39.1884 22.9927 39.5471 23.4497 39.8556C23.5025 39.8974 23.5677 39.9275 23.6389 39.943C23.7102 39.9585 23.7852 39.9589 23.8568 39.9442C24.066 39.8734 24.2501 39.6428 24.4349 39.6322C24.6198 39.6215 24.8306 40.0108 25.1871 39.7496C25.2981 39.6634 25.436 39.6036 25.5858 39.5766C25.7357 39.5497 25.8918 39.5566 26.037 39.5967C26.8068 39.89 27.653 40.0278 28.5033 39.9982C28.6019 39.9979 28.6764 40.1576 28.7507 40.2573C28.8249 40.3571 28.6525 40.3877 28.5909 40.3979C27.5561 40.5415 26.4582 40.2252 25.4991 40.8585C24.9706 40.8689 24.4431 40.8168 23.9333 40.7039C23.8173 40.6389 23.6796 40.6043 23.5386 40.6048C23.3976 40.6053 23.2601 40.6408 23.1445 40.7066C22.9904 40.8061 22.7996 40.8606 22.6028 40.8613C22.406 40.8619 22.2148 40.8088 22.06 40.7103C21.7676 40.5032 21.387 40.3968 20.9991 40.414C20.2473 40.4166 19.4955 40.4192 18.756 40.4217C18.7534 40.3307 18.79 40.2418 18.8595 40.1704C18.929 40.0989 19.0271 40.0494 19.1368 40.0304C19.42 39.9594 19.9625 40.0275 19.9495 39.8376C19.9479 39.3776 19.3694 39.5896 19.0489 39.5707C18.5113 39.5425 17.9719 39.5444 17.4344 39.5762C17.2989 39.5767 17.0527 39.6775 17.0529 39.7375C17.0538 39.9875 17.3248 39.9466 17.4976 40.036C17.9669 40.2944 17.8077 40.615 17.5007 40.916C17.1936 41.2171 17.3415 41.2166 17.5018 41.236C18.0936 41.304 18.7345 41.3318 19.3016 41.3798C19.3433 41.3835 19.3828 41.3966 19.4156 41.4178C19.4484 41.4389 19.4731 41.4671 19.4869 41.4992C19.4804 41.5636 19.4456 41.6241 19.3889 41.6695C19.1677 41.8503 18.9341 42.0311 18.6882 42.2019C18.4423 42.3728 18.4175 42.3229 18.3069 42.4033C18.1962 42.4836 18.247 42.9235 18.3951 42.9629C18.8885 43.0913 19.4429 43.0293 19.8509 43.4079C20.4153 42.676 20.9108 43.4043 21.4409 43.4625C21.6997 43.4616 22.0929 43.1102 22.1917 43.1799C22.8096 43.6578 23.5115 43.4754 24.1772 43.5231C24.4755 43.5421 24.7697 43.5915 25.0527 43.6701C26.1067 44.0244 27.2884 44.0382 28.3558 43.7087C28.5037 43.7082 28.6017 43.5379 28.713 43.6475C29.0841 44.0362 29.5765 43.8845 30.0203 43.923C30.2072 43.9674 30.4051 43.972 30.595 43.9363C30.7848 43.9007 30.9602 43.8259 31.1042 43.7193C31.4605 43.4081 31.8571 44.0267 32.2623 43.6053C32.4028 43.4912 32.5931 43.4268 32.7916 43.4261C32.9902 43.4255 33.181 43.4886 33.3222 43.6017C33.5616 43.7617 33.8529 43.8623 34.1612 43.8914C34.4695 43.9205 34.7818 43.8769 35.0605 43.7657C35.2577 43.765 35.5403 43.514 35.6145 43.5738C36.22 44.0617 36.9093 43.8093 37.5626 43.8371C37.6429 43.6092 37.6209 43.3658 37.5005 43.1501C37.3801 42.9344 37.1692 42.7605 36.9054 42.6593C35.9627 42.4177 34.9501 42.4211 34.0092 42.6693C33.098 42.9024 33.098 42.9124 32.5283 42.0944C32.6535 42.0448 32.7662 41.9766 32.8603 41.8932C32.983 41.7228 33.0188 41.3827 33.142 41.3623C33.2651 41.3418 33.3892 41.5914 33.4638 41.7712C33.5384 41.9509 33.7481 42.0002 33.8705 41.7698C33.9344 41.6427 33.9875 41.5122 34.0294 41.3792L36.1601 40.9619C36.4446 41.2609 37.2186 40.5682 37.234 41.4482C37.2342 41.5082 37.4687 41.6074 37.6043 41.6169C38.4547 41.614 39.2927 41.6111 40.0692 41.6085C40.5622 41.6068 40.6738 41.8164 40.8231 42.2159C40.9723 42.6154 41.4279 42.5038 41.6359 42.0631C41.8439 41.6224 41.9916 41.5419 42.2877 41.6508C42.5839 41.7598 42.8065 41.9691 43.2493 41.7175C44.1472 41.2144 45.1314 40.7111 46.1573 41.5575C46.7599 41.1855 47.2813 42.2737 47.9815 41.6213C48.2518 41.3803 48.6232 41.8591 48.9198 42.088C49.2164 42.317 49.1917 42.3171 49.6346 42.0856C49.7627 42.0187 49.9168 41.9926 50.0671 42.0124C50.2173 42.0322 50.3532 42.0965 50.4484 42.1928C50.708 42.4119 50.8553 42.2414 50.8792 42.0313C50.9393 41.5911 51.1241 41.5705 51.433 41.8094C51.742 42.0484 51.6675 41.8986 51.8151 41.8081C51.9627 41.7176 52.1228 41.697 52.1476 41.727C52.1723 41.7569 52.2847 42.1765 52.433 42.296C52.5813 42.4155 52.826 41.8846 53.1474 42.1735C53.4688 42.4624 53.6292 42.5019 53.949 42.3308C54.2946 42.1866 54.6239 42.0182 54.9332 41.8274C55.4126 41.4557 55.9554 41.5939 56.473 41.5821C56.8057 41.5809 56.9924 42.1003 57.4471 41.7387C57.9019 41.3772 58.0398 42.0667 58.434 42.0053C58.8151 41.9741 59.1989 41.9727 59.5802 42.0014C59.9622 42.0001 60.3566 41.9987 60.7387 41.9974C60.8924 41.9892 61.0463 42.009 61.1893 42.0552C61.3323 42.1014 61.4608 42.1729 61.5653 42.2646C61.9113 42.5334 61.9101 42.1834 61.9589 42.0232C61.9711 41.88 61.9706 41.7363 61.9574 41.5932C62.0057 41.4625 62.0671 41.3352 62.141 41.2126L62.4993 41.4814C62.6509 41.6141 62.7642 41.7726 62.8308 41.9453C62.8975 42.118 62.9159 42.3007 62.8848 42.4801C62.8852 42.5901 63.0334 42.6895 63.12 42.7993C63.2018 42.684 63.2715 42.5633 63.3283 42.4385C63.5228 41.6579 63.5228 41.6479 64.262 41.5753C64.4099 41.5748 64.5578 41.5743 64.7057 41.5738C64.7062 41.7338 64.7069 41.9238 64.9902 41.8728C64.9902 41.8728 65.0881 41.6825 65.1247 41.5624L66.0135 41.9993C66.0138 42.0693 66.0141 42.1593 66.0142 42.1793C66.792 42.5866 67.6921 42.7035 68.4825 43.1708C68.7048 43.3001 68.6911 42.9101 68.8015 42.7697C68.8633 42.6881 68.9453 42.6177 69.0423 42.5631C69.1393 42.5085 69.2493 42.4709 69.3651 42.4526C69.481 42.4344 69.6002 42.4359 69.7152 42.457C69.8303 42.4782 69.9386 42.5185 70.0333 42.5755C70.2803 42.7246 70.1219 43.2352 70.479 43.154C70.8361 43.0727 70.9341 42.8924 71.2431 43.1513C71.5521 43.4103 71.8455 42.7093 72.1674 43.1482C72.1674 43.1482 72.4386 43.1472 72.5368 43.0469C72.967 42.7054 73.5844 43.0433 74.0389 42.6017C74.2723 42.3909 74.3228 42.7508 74.3728 42.9306C74.485 43.3102 74.8549 43.3689 75.101 43.2481C76.3047 42.8578 77.6095 42.7192 78.8956 42.845C79.6473 42.8425 80.3996 42.9699 81.1003 42.4575C81.2604 42.3696 81.449 42.3224 81.6421 42.3217C81.8352 42.3211 82.0241 42.367 82.1848 42.4537C83.0253 43.1509 83.7374 42.3584 84.5016 42.3958C85.387 41.8027 86.3983 42.0092 87.3718 41.9759C87.7674 42.3145 88.1119 42.1534 88.6042 41.9717C89.2125 41.8939 89.8317 41.8918 90.4406 41.9654C91.0568 41.9632 91.673 41.9611 92.2769 41.959C92.8808 41.957 93.6695 41.9543 94.3597 41.9519C94.8384 41.3802 95.4062 41.6483 95.9614 41.8164C96.4158 41.3348 96.7761 42.1836 97.1943 41.9322C97.6176 41.6646 98.1256 41.4999 98.6593 41.4571C98.7948 41.4566 98.9051 41.2663 99.0405 41.2058C99.1758 41.1453 99.4487 41.6544 99.7804 41.3433C100.112 41.0321 100.433 41.061 100.779 41.3398C100.829 41.3897 100.892 41.4299 100.963 41.4574C101.035 41.485 101.113 41.4991 101.192 41.4988C101.271 41.4986 101.349 41.4839 101.421 41.4559C101.492 41.4279 101.555 41.3872 101.604 41.337C101.85 41.1261 102.171 41.155 102.441 41.0541C103.008 40.8622 103.524 40.5504 103.946 41.2789C104.095 41.5284 104.316 41.3877 104.488 41.2771C104.589 41.1668 104.7 41.0628 104.82 40.9659C105.164 40.6748 105.3 40.8143 105.363 41.1941C105.363 41.2841 105.598 41.4333 105.622 41.4132C106.311 40.9408 107.101 41.1881 107.84 41.1056C109.491 40.9399 111.206 41.484 112.768 40.6686C112.802 40.6536 112.84 40.6457 112.879 40.6456C112.918 40.6454 112.956 40.6531 112.99 40.6679C113.335 40.7967 113.669 41.0455 114.014 41.0443C114.359 41.0432 114.679 40.7521 115.036 40.7008C115.393 40.6496 115.395 41.0496 115.506 41.2992C115.618 41.5488 115.754 41.5284 115.802 41.3582C115.851 41.188 115.887 40.7979 115.96 40.5277C115.976 40.4663 116.013 40.4098 116.066 40.3639C116.119 40.318 116.186 40.2844 116.26 40.2668C116.335 40.2492 116.413 40.2481 116.488 40.2636C116.563 40.2792 116.632 40.3108 116.686 40.3552C116.872 40.5645 116.947 40.9343 117.169 41.0235C117.589 41.1921 117.822 40.7813 118.104 40.5503L118.461 40.2791C118.747 41.0181 119.853 40.2743 120.14 41.1533C120.314 41.6927 120.573 41.6418 120.99 41.1504C121.471 41.1487 121.819 41.9175 122.396 41.3555C122.629 41.1247 122.802 41.2941 122.828 41.5041C122.86 41.8669 122.861 42.231 122.831 42.5941C122.814 42.6597 122.765 42.7172 122.696 42.7545C122.598 42.7049 122.45 42.6454 122.425 42.5555C122.4 42.4655 122.423 42.1355 122.115 42.1565C122.115 42.1565 121.98 42.397 121.956 42.5271C121.798 43.2376 121.798 43.2176 121.182 43.3097C120.567 43.4018 120.209 43.5031 119.729 43.6047C119.148 43.1567 118.644 43.3885 118.066 43.6704C117.487 43.9524 116.836 44.5647 116.033 43.8174C114.726 43.6519 113.569 44.2559 112.337 44.4501C112.232 44.5004 112.142 44.5702 112.076 44.6539C112.01 44.7375 111.969 44.8326 111.957 44.9314C112.044 45.1411 112.451 45.1697 112.537 45.0294C112.917 44.4281 113.437 45.2564 113.929 44.8147C114.42 44.373 114.938 44.6112 115.444 44.8095C115.568 44.869 115.741 44.9984 115.827 44.9581C117.378 44.3728 119.006 44.7372 120.583 44.6418C120.817 44.641 121.15 44.7098 121.249 44.6395C121.691 44.138 122.025 44.5468 122.407 44.6355C122.79 44.7242 123.258 44.6326 123.221 44.8127C123.149 45.243 122.63 45.0148 122.298 45.0759C121.965 45.137 121.188 44.8997 120.733 45.2313C120.554 45.3495 120.346 45.4366 120.124 45.4872C119.902 45.5379 119.669 45.551 119.44 45.5257C118.824 45.5278 118.208 45.53 117.591 45.5321C116.975 45.5342 116.951 45.8043 116.842 46.1747C116.842 46.1747 116.707 46.2851 116.694 46.2852C116.348 45.9864 116.052 45.9974 115.783 46.3683C115.513 46.7392 115.242 46.7802 114.859 46.4915C114.765 46.4377 114.656 46.4041 114.541 46.394C114.427 46.3839 114.311 46.3976 114.205 46.4337C113.725 46.5954 113.27 46.7869 112.813 46.4385C111.765 46.5121 110.68 46.1858 109.708 46.8492C109.598 46.9196 109.277 46.7807 109.091 46.6813C108.597 46.403 108.71 46.8026 108.6 47.023C108.489 47.2434 108.292 47.204 108.181 47.0244C108.069 46.8448 108.093 46.6747 108.007 46.655C107.711 46.586 107.749 46.8459 107.675 47.0262C107.664 47.0898 107.632 47.1499 107.583 47.2006C107.535 47.2514 107.47 47.2909 107.397 47.3154C107.324 47.3399 107.244 47.3484 107.165 47.3402C107.087 47.332 107.012 47.3074 106.949 47.2687C106.813 47.2091 106.64 46.9997 106.578 47.0299C105.213 47.6946 103.732 47.2397 102.315 47.4146C102.02 47.4156 101.65 47.4169 101.429 47.5376C100.974 47.7801 100.427 47.8814 99.8889 47.8229C98.7304 47.8269 97.5843 47.8308 96.4258 47.8348C95.8835 47.8367 95.5764 48.1377 95.3189 48.4986C95.1962 48.6591 95.2218 48.939 95.0867 49.0794C94.6201 49.571 95.2373 49.8589 95.3493 50.1785C95.4613 50.4982 95.7803 50.0871 96.0267 50.0362C96.667 49.884 97.2571 49.452 97.96 49.5696C98.3669 49.6382 98.4521 49.3279 98.5127 49.0277C98.5733 48.7275 98.7213 48.7569 98.7956 48.8667C99.4273 49.7645 100.388 49.5712 101.263 49.5582C101.719 49.5566 102.187 49.555 102.643 49.5535C103.099 49.5519 103.876 49.6792 104.208 49.4381C104.54 49.1969 105.009 49.5153 105.44 49.3639C105.871 49.2124 106.352 49.3607 106.82 49.1591C107.288 48.9575 107.547 49.0666 107.866 48.8255C108.186 48.5844 108.668 49.1128 109.1 49.1013C109.531 49.0898 109.766 49.179 110.012 49.0981C110.725 48.7357 111.402 48.5434 112.119 49.0909C112.182 49.1273 112.258 49.1468 112.335 49.1465C112.412 49.1462 112.488 49.1263 112.551 49.0894C112.763 48.9504 113.008 48.848 113.27 48.7887C113.533 48.7293 113.808 48.7141 114.078 48.7442C114.546 48.7426 115.002 48.741 115.458 48.7394C115.994 48.787 116.535 48.7015 117.01 48.4941C117.391 48.2728 117.738 48.8716 118.243 48.7399C118.748 48.6081 119.316 48.8162 119.783 48.4546C120.066 48.2336 120.349 48.3126 120.609 48.5017C120.868 48.6908 121.14 48.7999 121.435 48.5689C121.664 48.3959 121.96 48.2924 122.272 48.276C124.132 48.1296 126.044 48.563 127.878 47.9367C127.936 48.0291 128.024 48.1066 128.133 48.1606C128.242 48.2145 128.368 48.2429 128.496 48.2424C128.623 48.242 128.748 48.2128 128.857 48.1581C128.966 48.1033 129.053 48.0253 129.111 47.9325C129.518 48.1711 129.863 48.0499 130.257 47.8486C130.399 47.8059 130.553 47.7924 130.703 47.8094C130.854 47.8263 130.997 47.8731 131.12 47.9456C131.167 47.9916 131.227 48.0286 131.294 48.0538C131.361 48.0791 131.434 48.0921 131.508 48.0918C131.582 48.0916 131.656 48.0781 131.723 48.0524C131.79 48.0266 131.849 47.9893 131.896 47.9429C132.191 47.7219 132.488 47.9409 132.71 48.0901C132.932 48.2394 132.982 48.2492 133.043 48.089C133.085 47.9514 133.109 47.8105 133.115 47.6687C133.113 47.0587 132.829 46.8297 132.3 47.1915C131.771 47.5534 131.646 46.9238 131.351 47.1948C131.056 47.4658 130.847 47.4265 130.784 46.9868C130.783 46.8368 130.597 46.4574 130.413 46.838C130.23 47.2187 130.157 47.4889 129.676 47.4706C129.195 47.4522 128.604 47.4742 128.062 47.4761C127.938 47.4765 127.691 47.3374 127.704 47.3073C127.703 47.0773 127.986 47.0564 128.208 47.0356C128.43 47.0148 128.38 46.915 128.368 46.9051C128.355 46.8951 128.231 46.6655 128.133 46.6459C127.903 46.6364 127.672 46.6372 127.442 46.6482C127.442 46.6482 127.27 46.5388 127.282 46.5188C127.294 46.4987 127.355 46.2585 127.441 46.2482C127.946 46.1165 128.526 46.3845 128.968 45.983C129.116 45.8425 129.214 45.8021 129.338 45.9217C129.771 46.3702 130.349 46.1482 130.855 46.2165C131.175 46.2154 131.411 46.7746 131.817 46.3532C132.222 45.9318 132.753 46.35 133.048 45.979C133.27 45.714 133.584 45.5082 133.95 45.3877C134.316 45.2672 134.717 45.2373 135.104 45.3019C136.25 45.298 137.408 45.294 138.554 45.29C138.861 45.3323 139.175 45.3196 139.475 45.2529C139.775 45.1863 140.053 45.0672 140.291 44.9041C140.416 44.8353 140.564 44.7983 140.716 44.7978C140.867 44.7972 141.015 44.8332 141.141 44.9011C141.636 45.3694 141.93 44.8984 142.299 44.7872C142.384 44.2469 143.001 44.4048 143.308 44.1137C143.615 43.8226 143.789 44.282 144.048 44.3512C144.496 44.4428 144.916 44.6081 145.282 44.8369C145.813 45.2251 145.986 45.1545 146.119 44.544C146.167 44.4161 146.251 44.2988 146.364 44.2013C146.477 44.1038 146.616 44.0287 146.77 43.9818C147.546 43.8191 148.385 44.0262 149.111 43.5738C149.618 44.142 150.011 43.7307 150.478 43.489C150.946 43.2474 151.304 43.5762 151.552 43.9354C151.8 44.2945 151.861 44.2843 152.008 43.9338C152.155 43.5833 152.352 43.4926 152.672 43.5115C152.889 43.5379 153.101 43.5876 153.301 43.6593C153.203 43.8397 153.007 44.1404 153.044 44.1802C153.178 44.2576 153.33 44.3124 153.49 44.3414C153.651 44.3705 153.817 44.3731 153.979 44.3493C154.141 44.3254 154.295 44.2755 154.433 44.2025C154.571 44.1295 154.689 44.0349 154.781 43.9243C155.112 43.4531 155.186 43.4229 155.606 43.6414L156.149 43.9196C156.224 44.2493 156.459 44.3685 156.779 44.3274C157.099 44.2863 157.358 44.3254 157.382 44.1853C157.516 43.6049 158.058 43.493 158.476 43.2616C158.661 43.1509 158.919 43.04 159.08 43.0995C159.24 43.1589 159.302 43.4087 159.414 43.5883C159.526 43.768 159.698 43.8374 159.833 43.5869C159.968 43.3364 159.955 43.2065 159.98 43.2064C160.362 43.3051 160.744 43.4338 161.088 43.0726C161.15 43.0124 161.396 43.0715 161.508 43.1311C161.593 43.2253 161.66 43.3296 161.706 43.4405L163.061 43.4358C163.542 43.4342 163.986 43.4326 164.07 42.8023C164.069 42.5823 164.205 42.6319 164.39 42.7312C165.477 43.2775 166.646 42.8835 167.768 42.9096C167.977 42.9089 168.174 42.7382 168.148 42.4583C168.123 42.3158 168.122 42.171 168.147 42.0283C168.204 41.9133 168.287 41.8079 168.392 41.7175C168.466 41.8372 168.602 41.9568 168.603 42.0768C168.604 42.3468 168.789 42.4961 169.023 42.5053C169.557 42.5284 170.092 42.5266 170.626 42.4998C170.626 42.4998 170.81 42.3992 170.798 42.3792C170.785 42.3593 170.71 42.0995 170.612 42.0399C170.357 41.894 170.089 41.7645 169.809 41.6526C169.624 41.5632 169.587 41.4734 169.673 41.3331C170.065 40.7017 169.225 40.1846 169.506 39.5336C169.506 39.4036 169.382 39.1441 169.245 38.9845C169.109 38.825 168.961 38.6255 168.727 38.7563C168.493 38.8871 168.642 39.0066 168.593 39.1468C168.434 39.6373 169.002 39.8954 169.028 40.3253C168.998 40.4608 168.944 40.5922 168.869 40.7158C168.869 40.7158 168.721 40.6463 168.684 40.5965C168.468 40.3904 168.292 40.1582 168.164 39.9083C168.125 39.6192 168.124 39.3276 168.161 39.0383C168.169 38.9888 168.166 38.9385 168.149 38.8904C168.133 38.8423 168.105 38.7973 168.067 38.7582C168.029 38.7191 167.982 38.6867 167.928 38.6629C167.874 38.639 167.814 38.6244 167.753 38.6197C167.445 38.6207 167.124 38.6218 166.829 38.6228C166.249 38.5248 165.844 38.9862 165.339 39.038C164.834 39.0897 164.007 38.8925 163.515 39.1342C162.456 39.4922 161.304 39.6302 160.164 39.5357C159.856 39.5368 159.498 39.458 159.252 39.5389C158.907 39.7795 158.475 39.9216 158.021 39.9431C157.651 39.9444 157.121 39.8262 156.924 40.0169C156.433 40.4886 156.111 39.9397 155.692 40.0211C155.495 40.0218 155.299 40.2825 155.101 40.2731C154.904 40.2638 154.743 40.0944 154.57 39.975C154.397 39.8556 154.372 39.7256 154.508 39.6352C154.643 39.5447 154.765 39.1443 155.209 39.2628C155.85 39.4206 156.108 39.1297 155.921 38.6103C155.836 38.4116 155.77 38.2079 155.722 38.001C155.659 37.6612 155.855 37.3405 156.139 37.3696C157.68 37.5243 159.083 36.7994 160.598 36.7642C160.66 36.764 160.733 36.5738 160.794 36.4536C161.168 36.4323 161.542 36.431 161.916 36.4497C162.228 36.4943 162.549 36.4579 162.834 36.3456C163.119 36.2333 163.354 36.0508 163.504 35.8242C163.497 35.727 163.516 35.6297 163.561 35.5393C163.606 35.4488 163.675 35.3676 163.763 35.3013C163.851 35.2351 163.957 35.1854 164.071 35.156C164.186 35.1266 164.307 35.118 164.426 35.1311C164.882 35.1295 165.35 35.1279 165.806 35.1263C166.73 35.1232 166.718 35.1232 166.887 34.0026C166.961 33.7333 167.072 33.4714 167.217 33.2215C167.29 33.0912 167.216 32.9415 167.068 32.932C166.612 32.9135 166.155 32.9151 165.7 32.9367C165.096 32.9388 164.764 33.2799 164.581 33.7905C164.384 33.703 164.198 33.5998 164.026 33.4824C163.667 33.1737 163.667 33.0337 164.023 32.8324C164.724 32.42 165.388 31.9077 166.3 31.9946C166.529 31.9886 166.747 31.917 166.916 31.7925C167.137 31.6217 167.395 31.4108 167.086 31.1019C166.777 30.793 166.925 30.8325 167.085 30.7819C167.308 30.7425 167.535 30.7183 167.763 30.7096C168.021 30.7087 168.157 30.5682 168.18 30.3181C168.193 30.2517 168.186 30.1838 168.16 30.1201C168.134 30.0563 168.09 29.9986 168.03 29.9518C167.971 29.905 167.899 29.8704 167.819 29.851C167.74 29.8316 167.656 29.8279 167.575 29.8402C167.427 29.8407 167.217 29.8414 167.131 29.8417C166.689 30.2533 166.356 30.1044 166.034 29.7055C165.928 29.5709 165.776 29.4651 165.595 29.4015C165.415 29.338 165.215 29.3197 165.022 29.349C164.83 29.3808 164.63 29.3711 164.444 29.3208C164.258 29.2706 164.091 29.1816 163.961 29.0626C163.652 28.7937 163.627 28.7238 163.959 28.3726C164.29 28.0215 164.389 28.0412 164.673 28.3102C164.958 28.5792 165.216 28.4183 165.474 28.2374C165.773 27.9915 165.97 27.6762 166.038 27.3355C166.445 27.4241 166.84 27.5127 167.271 27.5912C167.703 27.6698 168.232 27.3079 168.699 27.1363C168.7 27.2463 168.774 27.4061 168.836 27.4259C169.083 27.485 169.094 27.295 169.118 27.1349L169.118 27.0849C169.636 27.0131 169.597 26.6333 169.559 26.2834C169.521 25.9335 169.014 25.4652 169.037 24.8952C169.059 24.3251 168.16 24.2882 167.804 24.6794C167.718 24.7697 167.731 24.9597 167.657 25.0799C167.399 25.4408 167.067 25.4119 166.831 25.0027C166.757 24.883 166.744 24.663 166.657 24.6333C166.349 24.5444 166.399 24.8142 166.326 24.9845C166.23 25.1721 166.102 25.3477 165.945 25.5058C165.84 25.5823 165.719 25.6436 165.589 25.687C165.513 25.5639 165.458 25.4328 165.427 25.2976C165.408 25.0078 165.407 24.7174 165.424 24.4276C165.421 23.6376 165.605 23.3469 166.406 23.2042C167.206 23.0614 167.636 22.61 168.227 22.4379C168.502 22.375 168.782 22.3273 169.065 22.2951C169.066 22.6151 168.981 23.0353 169.499 23.1236C170.017 23.2118 170.24 23.601 170.586 23.8698C170.71 23.9694 170.796 23.8691 170.956 23.7986C171.144 23.6491 171.283 23.4629 171.358 23.2578C171.432 23.0527 171.441 22.8356 171.383 22.6271C171.382 22.4071 171.184 22.2578 170.939 22.4786C170.693 22.6995 170.533 22.61 170.482 22.3702C170.345 21.7407 170.48 21.5502 171.231 21.3676C171.428 21.3169 171.785 21.2157 171.784 21.1157C171.844 20.4955 172.263 20.4641 172.756 20.4624C172.904 20.4618 173.064 20.4613 173.212 20.4608C173.36 20.4603 173.618 20.3394 173.654 20.0893C173.667 20.0242 173.661 19.9575 173.635 19.895C173.61 19.8324 173.566 19.7757 173.508 19.7298C173.45 19.6839 173.379 19.65 173.301 19.6312C173.223 19.6123 173.141 19.6089 173.061 19.6213C172.836 19.6474 172.616 19.6986 172.408 19.7735C172.224 19.8442 172.114 20.0446 171.842 19.8455C171.57 19.6464 171.04 19.5183 170.869 20.1688C170.796 20.4391 170.057 20.6416 169.921 20.4721C169.562 19.9633 168.981 19.5553 169.078 18.815C169.076 18.505 169.359 18.264 169.68 18.3529C170.001 18.4418 170.186 18.6812 170.235 18.641C170.813 18.109 171.591 18.4764 172.194 18.2343C172.91 17.9539 173.59 17.6165 174.224 17.2273C174.224 17.2273 174.223 17.0873 174.223 17.0173C174.222 16.6573 173.666 16.3092 174.219 15.9273C173.984 15.6581 173.798 15.2687 173.354 15.2903C172.848 15.3184 172.342 15.2423 171.883 15.0691C171.423 14.8958 171.025 14.631 170.726 14.2993C170.553 14.1299 170.528 14.15 169.999 14.3018C169.925 14.3021 169.863 14.4023 169.79 14.4125C168.878 14.4856 167.966 14.6188 167.322 13.761C167.1 13.4818 166.953 13.8423 166.781 13.9129C166.608 13.9834 166.313 14.0845 166.164 13.915C166.016 13.7455 166.274 13.5546 166.409 13.4241C166.596 13.1997 166.829 13.0028 167.097 12.8418C167.208 12.8414 167.455 12.9905 167.64 13.0799C167.799 12.5293 168.327 12.1375 168.313 11.5176C168.314 11.3788 168.279 11.2414 168.21 11.1142C168.142 10.9871 168.042 10.8729 167.916 10.7789C167.189 10.431 166.397 10.1805 165.572 10.037C164.905 10.3243 164.179 10.5099 163.429 10.5843C163.429 10.5843 163.343 10.6746 163.294 10.7148C163.245 10.755 163.405 10.8444 163.479 10.8542C163.923 10.9127 164.367 10.9511 164.811 11.0096C164.811 11.0096 164.91 11.0993 164.959 11.1391C165.009 11.1789 164.837 11.2695 164.775 11.2697C162.865 11.4163 162.965 11.626 161.788 10.01C161.788 9.94999 161.788 9.86999 161.713 9.81024C161.503 9.54096 161.208 9.63198 160.936 9.62291C160.936 9.38291 160.787 9.24342 160.528 9.23431L160.686 8.45377C160.685 8.29377 161.03 8.13258 160.684 7.97377C160.612 7.9542 160.534 7.95447 160.462 7.97453C160.216 7.97538 160.106 8.17576 160.107 8.41576L160.109 9.14575C160.049 9.14685 159.991 9.15825 159.937 9.17918C159.883 9.20011 159.836 9.2301 159.797 9.26714C159.759 9.30419 159.731 9.34743 159.715 9.39399C159.698 9.44055 159.695 9.48935 159.704 9.53715C159.521 9.50706 159.332 9.51959 159.157 9.57328C158.983 9.62698 158.831 9.71964 158.719 9.84053C158.522 10.0312 158.288 9.97202 158.09 9.84269C157.994 9.77254 157.93 9.67779 157.91 9.57418C157.889 9.47057 157.913 9.36432 157.977 9.27308C158.112 9.04261 158.407 8.8716 158.098 8.56266C157.789 8.25372 157.085 7.78614 157.76 7.14381C157.534 6.78457 157.411 6.38853 157.399 5.98505C156.98 5.84649 156.855 5.59691 157.076 5.18615C157.162 5.03586 157.481 4.75476 157.074 4.72615C155.892 4.52795 154.85 3.96968 154.16 3.16616C153.888 2.92709 153.802 2.98739 153.693 3.52777C153.633 3.80798 153.695 4.09776 153.301 4.22912C152.907 4.36047 152.268 4.79267 151.59 4.715C150.901 4.66235 150.208 4.66473 149.519 4.72212C149.285 4.72292 149.126 4.86347 149.077 5.13364C149.029 5.40381 149.079 5.65364 148.696 5.37495C148.483 5.1627 148.301 4.93191 148.151 4.68682C147.854 4.26784 147.447 4.11924 147.028 4.30067C146.61 4.48211 146.364 4.64296 146.032 4.7941C145.7 4.94524 145.7 5.20524 145.478 4.97601C145.07 4.54741 144.369 4.97982 144.01 4.49105C143.815 4.24798 143.538 4.05593 143.212 3.93814C142.885 3.82035 142.524 3.78188 142.171 3.82736C141.752 3.8288 141.517 3.47961 141.318 3.17029C141.253 3.03842 141.24 2.89312 141.281 2.75485C141.323 2.61657 141.417 2.49228 141.55 2.39949C141.625 2.31301 141.665 2.20979 141.665 2.10409C141.664 1.9984 141.623 1.89545 141.548 1.80949C141.304 1.53074 141.04 1.26447 140.756 1.01221C140.571 0.822845 140.399 0.933438 140.177 1.0142C139.07 1.41616 137.902 1.69596 136.704 1.84614C135.164 2.03203 133.73 2.59521 132.594 3.46027C132.419 3.62409 132.308 3.82639 132.275 4.04137C132.19 4.28167 132.055 4.42213 131.808 4.43298C130.982 4.43582 130.282 5.14823 129.345 4.90145C128.839 4.76318 128.533 5.27424 128.114 5.29568C127.695 5.31712 127.311 4.80844 126.881 5.29991C125.378 5.48508 123.926 6.02008 122.385 5.84537C122.225 5.84592 122.002 5.75668 121.929 5.84694C121.388 6.3688 120.883 6.39053 120.364 5.85232C119.131 5.93655 117.898 5.60079 116.778 6.24464C116.68 6.29561 116.561 6.31388 116.446 6.29566C116.331 6.27744 116.23 6.22414 116.162 6.14676C116.065 6.04414 115.936 5.96375 115.789 5.91344C115.642 5.86312 115.481 5.84458 115.323 5.85964C114.362 5.95294 113.326 5.6565 112.453 6.3195C111.763 6.32188 111.073 6.32425 110.382 6.32662C109.692 6.32899 108.991 6.8114 108.19 6.75416C107.118 6.71283 106.045 6.71652 104.973 6.76521C104.443 6.76703 103.889 6.66894 103.446 7.08046C103.446 7.08046 103.187 7.01135 103.088 6.93169C102.767 6.64279 102.511 7.39368 102.164 6.93487C101.954 6.68559 101.609 6.74677 101.301 6.75783C100.993 6.76889 100.537 6.76046 100.155 6.76177C99.2302 6.76495 98.3059 6.76812 97.3816 6.7713C97.0254 6.7203 96.6804 6.62715 96.3577 6.49482C95.559 7.19756 94.3485 6.41172 93.5748 7.21438C93.1311 7.21591 92.651 7.37756 92.2311 7.109C92.0019 6.93541 91.6997 6.83937 91.3859 6.84045C91.0722 6.84152 90.7706 6.93964 90.5426 7.1148C90.1973 7.24756 89.8138 7.30077 89.434 7.26861C88.2015 7.27285 86.9691 7.27708 85.7367 7.28132C85.3546 7.28263 84.8612 7.16433 84.6028 7.28522C83.693 7.92835 82.6814 7.63182 81.708 7.70517C81.2526 7.71321 80.8057 7.80719 80.4026 7.97965C80.1351 8.11463 79.8223 8.17817 79.5083 8.1613C79.1943 8.14444 78.8948 8.04803 78.6522 7.88567C78.4916 7.78622 78.4176 7.75647 78.2578 7.88702C78.1956 7.94988 78.1169 8.00067 78.0275 8.03568C77.938 8.0707 77.8401 8.08905 77.7409 8.08939C77.6416 8.08973 77.5435 8.07206 77.4539 8.03766C77.3642 8.00326 77.2851 7.953 77.2225 7.89058C77.0702 7.79517 76.8884 7.7357 76.697 7.71872C76.5056 7.70173 76.3121 7.72789 76.1377 7.79431C75.6693 7.97477 75.1596 8.07339 74.6416 8.08378C74.1236 8.09418 73.6088 8.01611 73.1307 7.85464C72.9949 7.80627 72.8547 7.76663 72.7113 7.73608C72.023 7.79373 71.3294 7.79611 70.6408 7.7432C69.9748 7.61549 69.4103 8.31743 68.7678 7.85964C68.7678 7.85964 68.6449 7.94006 68.5834 7.98027C68.3952 8.0908 68.1691 8.15069 67.9369 8.15148C67.7048 8.15228 67.4783 8.09395 67.2893 7.98472C66.1416 7.63288 64.8848 7.58814 63.7025 7.85704C63.4164 8.08111 63.0349 8.20697 62.6376 8.20833C62.2403 8.2097 61.8579 8.08646 61.5704 7.86437C61.4186 7.7606 61.2262 7.70401 61.0275 7.70469C60.8289 7.70538 60.6369 7.76329 60.4858 7.8681C60.316 7.98306 60.1195 8.06922 59.9079 8.12148C59.6964 8.17374 59.4742 8.19103 59.2544 8.17233C58.4287 8.17517 57.5543 8.35817 56.7883 7.8108C56.0214 8.11009 55.1739 8.24716 54.3247 8.20927C53.7815 8.26389 53.232 8.16323 52.7709 7.92461C52.6202 7.81891 52.4274 7.76106 52.228 7.76175C52.0287 7.76243 51.8363 7.8216 51.6863 7.92834C51.3049 8.15139 50.8358 8.25269 50.3686 8.21287C49.3703 8.2163 48.3721 8.21973 47.3738 8.22316C46.8438 8.22498 46.3016 8.22684 45.7593 8.22871C45.5294 8.1988 45.2943 8.20868 45.0693 8.25771C44.8443 8.30674 44.6346 8.39381 44.4539 8.51319C43.9869 8.9048 43.5772 8.0262 42.9996 8.51819C42.7835 8.65598 42.517 8.73132 42.2424 8.73227C41.9677 8.73321 41.7007 8.6597 41.4837 8.5234C41.0982 8.30988 40.6393 8.20062 40.1724 8.2112C39.7055 8.22179 39.2544 8.35167 38.8834 8.58234C38.7955 8.64659 38.6816 8.68234 38.5633 8.68275C38.4451 8.68316 38.3309 8.64819 38.2426 8.58454C38.1593 8.49493 38.0532 8.42099 37.9314 8.36778C37.8096 8.31457 37.6751 8.28333 37.537 8.27621C37.3989 8.26909 37.2605 8.28625 37.1312 8.32652C37.002 8.36679 36.8849 8.42922 36.788 8.50954C36.2964 8.90123 35.6178 8.67356 35.0893 9.09538C34.8189 9.31631 34.2145 9.17839 33.7462 9.19C33.5244 9.19076 33.2407 9.12173 33.0684 9.19232C31.9983 9.81601 30.8265 9.53003 29.7052 9.58388C28.0909 9.65943 26.4762 9.59498 24.8617 9.60053C24.4796 9.60184 23.9862 9.48354 23.7404 9.66438C23.4193 9.8419 23.057 9.96431 22.6757 10.0241C22.2944 10.0839 21.9022 10.0798 21.5232 10.012C21.17 9.99564 20.8171 10.0496 20.4953 10.1693C20.1735 10.2889 19.8925 10.4705 19.6768 10.6984C19.382 10.9794 18.8747 10.3811 18.5435 10.8422C18.5435 10.8422 18.3953 10.7428 18.3951 10.6928C18.393 10.0928 17.9492 10.0543 17.4439 10.056C16.9386 10.0578 16.6033 9.32891 16.0012 9.84098C15.7677 10.0418 15.5088 10.0127 15.1757 9.90382C14.8059 9.73354 14.3879 9.6439 13.9624 9.64361C13.537 9.64332 13.1185 9.73239 12.7477 9.90216C12.5384 9.96288 12.2185 10.114 12.1197 10.0343C11.5263 9.50636 10.8122 9.72881 10.1465 9.6711C9.91291 9.6383 9.67256 9.66088 9.45422 9.73613C9.23586 9.81137 9.04882 9.93609 8.9155 10.0953C8.87108 10.1516 8.81242 10.1995 8.74343 10.2359C8.46727 10.3535 8.2002 10.4847 7.94371 10.6287C7.5256 10.9001 8.22869 11.0777 8.04458 11.2983C7.65175 11.7497 7.20948 12.1612 6.81665 12.6126C6.77698 12.7488 6.80399 12.8921 6.89199 13.0123C6.96624 13.102 7.21307 13.2012 7.27455 13.161C8.00253 12.7762 8.88476 12.6335 9.73808 12.7625C10.3543 12.7604 10.9705 12.7583 11.5744 12.7562C12.2175 13.404 12.8063 12.592 13.4599 12.6997C13.7956 12.7934 14.1571 12.8086 14.5033 12.7438C14.8495 12.679 15.1665 12.5366 15.4182 12.333C16.552 12.3291 17.7465 12.025 18.5759 13.1122C18.783 13.1216 18.9777 13.195 19.1202 13.3172C19.2627 13.4394 19.3421 13.6012 19.3423 13.7695C19.9592 13.9574 20.3927 14.5859 21.1319 14.4934C21.1769 14.6073 21.2351 14.7176 21.3055 14.8228C21.3725 14.9422 21.4469 15.0588 21.5286 15.172C21.4006 15.2347 21.2643 15.2855 21.1224 15.3234C20.9705 15.3531 20.812 15.3516 20.6613 15.3189C20.5105 15.2862 20.3722 15.2235 20.259 15.1364C19.9129 14.8276 19.5802 14.8587 19.2731 15.1398C19.138 15.2902 19.0272 15.3106 18.9033 15.141C18.6188 14.842 18.1992 14.6735 17.8671 14.8646C17.0682 15.2443 16.1355 15.3955 15.2188 15.2937C14.4522 15.2223 13.677 15.3473 13.0017 15.6513C12.7655 15.7728 12.4856 15.8257 12.2078 15.8012C11.9301 15.7767 11.6709 15.6764 11.473 15.5166C11.1146 15.2378 10.9559 15.6784 10.7094 15.6792C10.4629 15.68 9.93198 15.3919 9.71056 15.5126C8.96007 15.8952 8.19517 15.6678 7.456 15.7504C6.95069 15.7521 6.86349 15.4824 6.82507 15.0625C6.78666 14.6427 6.29248 14.2944 5.88642 14.4858C5.55494 14.6685 5.24975 14.8809 4.97659 15.1189C4.81679 15.2394 4.65668 15.27 4.61919 15.1201C4.39392 14.1209 3.58195 14.5437 2.96544 14.4558C2.20034 14.3928 1.43127 14.5436 0.785466 14.8833C0.551615 14.9741 0.144291 14.7955 0.0962619 15.1657C0.0231774 15.4159 0.282736 15.635 0.443399 15.7645ZM122.633 45.8748C122.523 45.9351 122.399 45.9956 122.289 46.0659L122.633 45.8748ZM165.58 12.437C165.691 12.5166 165.79 12.6362 165.901 12.6459C165.766 12.6363 165.667 12.5167 165.58 12.437ZM136.215 42.4381C136.215 42.4381 136.216 42.5281 136.216 42.5781C136.216 42.5781 136.105 42.4684 136.191 42.4381L136.215 42.4381Z" fill="#0B70E3"/>
<path id="Vector_2" d="M167.86 44.8093C167.631 44.7901 167.4 44.7909 167.17 44.8117C166.677 44.8134 166.541 44.5539 166.441 44.1742C166.366 43.9645 166.231 43.9749 166.121 44.1753C166.01 44.3757 166.123 44.9053 165.469 44.5775C164.54 44.2869 163.521 44.2449 162.56 44.4575C161.982 44.9695 161.255 44.842 160.589 44.8043C159.923 44.7666 159.359 45.3885 158.643 45.271C158.34 45.207 158.02 45.2109 157.719 45.2824C157.417 45.3538 157.145 45.4902 156.932 45.6769C156.87 45.7271 156.611 45.678 156.512 45.5983C156.24 45.3493 156.043 45.4299 155.748 45.601C155.453 45.772 154.898 45.6039 154.689 45.8646C154.186 46.3763 153.924 45.6372 153.456 45.7388C152.988 45.8404 153.051 46.2402 152.718 46.0314C152.384 45.8225 152.186 45.6232 151.916 45.8441C151.449 46.2057 150.919 46.1276 150.401 46.1893C149.514 46.3024 148.552 45.8957 147.765 46.5784C147.135 46.0406 147.062 46.4208 147.076 46.9508C147.108 47.1699 147.109 47.3914 147.079 47.6108C147.075 47.6594 147.058 47.7069 147.03 47.7499C147.001 47.7929 146.962 47.8304 146.914 47.86C146.866 47.8895 146.811 47.9104 146.753 47.9212C146.694 47.932 146.633 47.9324 146.574 47.9225C146.291 47.9235 146.253 47.7136 146.437 47.513C146.631 47.2698 146.713 46.9792 146.669 46.6922C146.668 46.3922 146.569 46.3125 146.126 46.484C145.941 46.5547 145.855 46.615 145.793 46.4052C145.73 46.1954 145.716 45.7154 145.114 46.0575C144.607 46.2277 144.057 46.2915 143.512 46.243C143.155 46.2442 142.958 46.4149 142.959 46.7749C142.961 47.1349 142.962 47.6549 142.964 48.0949C142.964 48.1649 142.693 48.2858 142.693 48.2858C142.236 47.7474 141.881 48.5886 141.461 48.3701C141.298 48.2573 141.09 48.1957 140.875 48.1964C140.661 48.1971 140.453 48.2602 140.29 48.3741C139.847 48.4832 139.377 48.5019 138.923 48.4288C138.697 48.403 138.466 48.4227 138.251 48.4862C138.037 48.5497 137.844 48.6551 137.691 48.793C137.283 48.2744 136.927 48.7957 136.545 48.797C136.434 48.7973 136.2 48.7282 136.175 48.6482C135.801 47.4795 135.681 48.3799 135.436 48.6508C135.19 48.9216 135.054 48.7721 134.832 48.6529C134.227 48.4349 134.227 48.4449 134.217 48.975C134.217 49.235 134.096 49.8154 134.773 49.3631C134.773 49.3631 134.92 49.2726 134.945 49.2925C135.255 49.5412 135.674 49.6799 136.111 49.6784C136.547 49.6769 136.966 49.5353 137.274 49.2845C137.434 49.1739 137.718 49.2229 137.939 49.2222C139.862 49.2156 141.785 49.209 143.707 49.2024C144.06 49.252 144.398 49.3524 144.707 49.4989C145.284 48.9769 146.012 49.2244 146.665 49.1622C147.564 49.0891 148.502 49.3659 149.313 48.7731C149.393 48.7755 149.471 48.7965 149.536 48.8335C149.602 48.8705 149.653 48.9219 149.684 48.9818C150.203 49.46 150.597 49.1987 151.089 48.917C151.298 48.7963 151.817 49.1945 152.051 49.0937C152.384 48.9391 152.763 48.8617 153.147 48.8699C153.603 48.8684 154.071 48.8667 154.527 48.8652C154.983 48.8636 155.599 48.9415 156.042 48.53C156.484 48.1184 156.807 48.9673 157.274 48.6157C157.742 48.2641 158.003 48.9032 158.445 48.5317C158.887 48.1602 159.32 48.4287 159.776 48.4071C160.232 48.3856 160.515 48.4946 160.663 48.3341C161.056 47.9227 161.513 48.3912 161.821 48.1901C162.128 47.989 162.695 48.0071 163.151 47.9855C163.607 47.964 164.063 47.9824 164.531 47.9808C164.835 47.965 165.14 47.9639 165.443 47.9777C166.121 47.9753 166.008 47.3857 166.291 47.0947C166.573 46.8038 166.141 46.6252 166.005 46.4357C165.869 46.2462 165.535 46.0173 165.633 45.687C165.779 45.1865 166.248 45.3849 166.593 45.3337C167.159 45.2317 167.37 45.561 167.532 46.0305C167.607 46.2702 167.952 46.239 168.124 46.1284C168.296 46.0178 168.825 45.746 168.762 45.2962C168.699 44.8464 168.156 44.8383 167.86 44.8093ZM145.293 47.8869C145.43 47.8458 145.558 47.788 145.674 47.7156C145.563 47.8057 145.434 47.8805 145.293 47.9369L145.293 47.8869Z" fill="#0B70E3"/>
<path id="Vector_3" d="M165.705 48.7868C165.556 48.752 165.398 48.7526 165.249 48.7884C163.832 48.9432 162.352 48.4883 160.999 49.243C159.859 49.1571 158.709 49.2948 157.648 49.6445C157.574 49.6447 157.401 49.5153 157.253 49.4758C157.105 49.4363 156.71 49.2677 156.636 49.338C155.997 50.0002 154.935 49.3438 154.322 50.0659C153.525 50.2974 152.655 50.3004 151.857 50.0744C151.499 49.9156 151.227 49.6865 150.846 49.9779C149.845 50.5715 148.598 50.8235 147.373 50.6798C146.793 50.6818 146.483 50.1028 145.88 50.2449C145.277 50.387 144.834 50.8385 144.168 50.7008C143.86 50.6319 143.602 50.8927 143.331 50.9437C143.06 50.9946 142.677 50.7259 142.344 50.7271C140.274 50.7342 138.203 50.7413 136.182 50.7482C136.107 50.7427 136.031 50.7497 135.959 50.7688C135.887 50.788 135.82 50.8189 135.764 50.8597C135.371 51.261 134.752 50.5532 134.409 51.1343L132.573 51.1407C131.808 51.1433 131.032 51.1459 130.268 51.1486C130.046 51.1493 129.812 51.1501 129.578 51.1509C129.5 51.1299 129.429 51.0955 129.369 51.0499C129.309 51.0044 129.262 50.9488 129.232 50.8871C129.201 50.8254 129.187 50.7591 129.191 50.6926C129.195 50.6261 129.217 50.5611 129.255 50.5021C129.488 50.2412 129.684 49.9306 130.079 49.8592C130.078 49.6292 129.954 49.4396 129.707 49.4605C129.468 49.4963 129.247 49.5888 129.072 49.7264C128.897 49.8641 128.776 50.0407 128.724 50.2339C128.726 50.7539 128.728 51.2339 128.729 51.7739C128.73 51.8839 128.94 52.0631 129.026 52.0628C129.913 51.9698 130.864 52.3665 131.675 51.7137C131.719 51.6801 131.771 51.6551 131.829 51.6405C131.886 51.626 131.947 51.6223 132.007 51.6299C132.066 51.6374 132.123 51.6559 132.172 51.6839C132.222 51.712 132.262 51.7488 132.291 51.7916C132.588 52.1006 132.97 52.0493 133.352 52.048C134.264 52.0448 135.188 52.0417 136.113 52.0385C137.237 52.9446 138.22 51.9613 139.267 51.8177C139.477 51.8169 139.673 51.6263 139.883 51.6055C140.277 51.6042 140.634 51.603 140.722 52.0827C140.723 52.3127 141.019 52.3916 141.117 52.0813C141.214 51.771 141.287 51.5307 141.682 51.5494C142.914 51.6251 144.269 51.1505 145.491 51.8363C146.081 51.2442 146.97 51.7112 147.609 51.279C148.248 50.8468 148.569 51.0557 149.088 51.2739C149.378 51.4308 149.716 51.5189 150.064 51.5283C150.413 51.5377 150.757 51.468 151.06 51.3271C151.667 51.0628 152.357 50.9491 153.043 51.0003C153.733 50.9979 154.423 50.9956 155.114 50.9932C155.702 50.1712 156.667 51.2079 157.294 50.5857C157.947 50.6935 158.673 50.311 159.266 50.8489C159.436 50.7624 159.632 50.7161 159.833 50.7154C160.033 50.7147 160.23 50.7596 160.4 50.845C160.928 50.2732 161.756 50.7804 162.321 50.3584C162.887 49.9365 163.651 50.1438 164.317 50.1116C164.982 50.0793 165.387 49.6379 165.941 49.436C166.015 49.4357 166.051 49.1656 166.014 49.0457C165.987 48.9876 165.946 48.9346 165.893 48.89C165.84 48.8454 165.776 48.8103 165.705 48.7868Z" fill="#0B70E3"/>
<path id="Vector_4" d="M53.8865 45.641C53.2702 45.6431 52.6542 45.6952 52.0501 45.6473C51.4663 45.643 50.8875 45.737 50.3503 45.9232C49.8188 45.475 49.1172 45.7274 48.5872 45.7092C47.2808 45.7137 45.9744 45.7182 44.6803 45.7226C44.1504 45.7245 43.5956 45.6564 43.1533 46.0579C43.0673 46.1382 42.7963 46.1791 42.7344 46.1193C42.1656 45.5513 41.6614 45.883 41.0953 46.125C40.9599 46.1854 40.7004 45.9663 40.4907 45.917C40.281 45.8678 39.8244 45.6893 39.6276 45.8C39.111 46.1018 38.6789 45.9033 38.198 45.8049C38.0494 45.7616 37.8882 45.7549 37.7348 45.7857C37.5814 45.8164 37.4426 45.8833 37.3358 45.9779C37.1884 46.1084 37.1022 46.1187 36.9663 46.0391C36.8305 45.9596 36.4215 45.311 36.0895 45.5322C35.5485 45.884 35.2754 45.325 34.8565 45.3564C33.9447 45.4295 33.0201 45.3627 32.0958 45.3659C31.1715 45.3691 30.1106 45.0727 29.2007 45.7058C29.0901 45.7862 28.7691 45.6373 28.584 45.548C28.3988 45.4586 28.0284 45.2799 27.7459 45.5508C27.4505 45.7616 27.0677 45.8737 26.6748 45.8645C26.5762 45.8649 26.5028 46.0251 26.4168 46.1054C26.5432 46.1753 26.6801 46.2319 26.8241 46.274C27.1325 46.3629 27.3805 46.8221 27.7859 46.4207C27.8842 46.3304 28.1304 46.2595 28.2046 46.3193C28.8718 46.817 29.6599 46.6243 30.3996 46.6917C30.6707 46.6908 30.9183 46.9999 31.1771 46.999C31.4359 46.9982 31.731 46.7971 32.0142 46.7162C32.2974 46.6352 32.3346 46.7151 32.4702 46.7146C32.9256 46.543 33.2113 47.2021 33.7033 46.9104C34.1953 46.6187 34.738 46.7468 35.2554 46.685C35.7728 46.6233 36.4861 46.1708 37.0064 46.939C37.1179 47.1086 37.5615 47.0971 37.8574 47.1161C38.5352 47.1138 39.3235 46.9811 39.8914 47.2491C40.5105 47.4859 41.1929 47.5936 41.8767 47.5623C42.4871 47.51 43.1023 47.5079 43.713 47.556C44.3173 47.6839 44.7219 47.0525 45.4009 47.3802C46.0798 47.7078 46.6335 47.4459 47.1883 47.504C47.7431 47.5621 47.9025 47.3116 48.2471 47.1604C48.4172 47.0809 48.6141 47.0474 48.8091 47.0647C49.0042 47.082 49.1873 47.1492 49.3319 47.2567C49.3946 47.3156 49.4723 47.3628 49.5596 47.3951C49.647 47.4273 49.7419 47.4438 49.8379 47.4435C49.9339 47.4432 50.0287 47.426 50.1158 47.3931C50.2029 47.3603 50.2803 47.3125 50.3425 47.2532C50.517 47.139 50.7341 47.0763 50.9582 47.0756C51.1822 47.0748 51.3997 47.136 51.575 47.249C51.6861 47.3086 51.8713 47.3979 51.9451 47.3577C52.8061 46.8547 53.7313 47.1115 54.6432 47.0784C55.5551 47.0453 56.7876 47.071 57.8598 47.0674C58.1395 47.0644 58.4076 46.9758 58.6105 46.8193C58.8133 46.6629 58.936 46.4501 58.9538 46.2236C58.1404 46.2264 57.3147 46.2292 56.4887 46.1521C55.7342 45.3746 54.7739 45.678 53.8865 45.641Z" fill="#0B70E3"/>
<path id="Vector_5" d="M58.978 46.0935L59.052 46.0933L59.0518 46.0333C59.0518 46.0333 59.0518 46.0333 58.9778 46.0335L58.978 46.0935Z" fill="#0B70E3"/>
<path id="Vector_6" d="M110.784 51.6055C109.096 51.6113 107.408 51.6171 105.719 51.6229C105.436 51.6239 105.066 51.6252 104.857 51.7459C104.377 52.0976 103.847 52.0094 103.33 52.0612C102.443 52.1642 101.468 51.7776 100.694 52.4702C100.156 52.5019 99.6168 52.5038 99.0792 52.4758C98.4257 52.398 98.0336 53.0594 97.3554 52.9517C97.2094 52.9049 97.0489 52.8964 96.8965 52.9274C96.744 52.9584 96.6073 53.0274 96.5056 53.1246C96.778 53.4937 97.1718 53.3223 97.5169 53.3411C98.1332 53.339 98.7494 53.3369 99.3533 53.3348C99.9572 53.3328 100.5 53.4609 100.955 53.2593C101.411 53.0578 102.064 53.1955 102.619 53.2536C102.689 53.2788 102.764 53.2916 102.841 53.2913C102.917 53.2911 102.993 53.2777 103.063 53.2521C103.314 53.1036 103.599 52.9974 103.902 52.9397C104.204 52.882 104.518 52.874 104.824 52.916C105.97 52.9121 107.116 52.9082 108.275 52.9042C108.729 52.8626 109.188 52.861 109.643 52.8995C110.087 52.9679 110.355 52.287 110.875 52.7552C111.394 53.2235 111.762 52.7522 112.206 52.8707C113.526 53.1161 114.669 52.4122 115.988 52.3777C116.111 52.3772 116.246 52.2168 116.345 52.1164C116.453 52.0086 116.551 51.8946 116.639 51.7754C116.528 51.7058 116.429 51.5561 116.318 51.5565C114.469 51.5929 112.621 51.5992 110.784 51.6055Z" fill="#0B70E3"/>
<path id="Vector_7" d="M37.0514 49.2889C36.1517 49.292 35.2644 49.295 34.3647 49.2981C34.2908 49.2984 34.1682 49.4988 34.1686 49.6188C34.169 49.7388 34.256 49.9485 34.3423 49.9582C34.6359 50.0033 34.9322 50.0357 35.23 50.0552L37.0047 50.0491C37.2019 50.0484 37.398 49.7277 37.2989 49.5681C37.1997 49.4084 37.1377 49.2886 37.0514 49.2889Z" fill="#0B70E3"/>
<path id="Vector_8" d="M122.862 51.604C122.049 51.6068 121.223 51.6096 120.398 51.6125C120.325 51.8827 120.153 52.0433 119.82 52.0345C119.487 52.0256 118.982 52.0374 118.587 52.0387C118.588 52.1687 118.687 52.3584 118.749 52.3682C119.185 52.4195 119.626 52.4414 120.068 52.4336C120.437 52.4324 120.943 52.5006 121.152 52.3099C121.655 51.8382 121.941 52.5572 122.385 52.4057C122.589 52.3148 122.772 52.1958 122.926 52.0538C123.017 51.9573 123.076 51.8435 123.097 51.7232C123.097 51.7232 122.924 51.6038 122.862 51.604Z" fill="#0B70E3"/>
<path id="Vector_9" d="M32.3051 48.8952C31.7981 49.0048 31.3273 49.2046 30.9268 49.4799C30.6685 49.6208 30.9265 49.3899 30.9275 49.6799C30.9279 49.7999 31.0519 50.0095 31.1258 50.0092C31.7148 50.0638 32.3085 50.0785 32.9007 50.0531C33.0855 50.0525 33.2819 49.8218 33.4293 49.6713C33.5767 49.5208 33.5269 49.371 33.4283 49.3613C33.1072 49.1824 32.6871 48.8639 32.3051 48.8952Z" fill="#0B70E3"/>
<path id="Vector_10" d="M70.6359 45.7835C70.3901 45.9743 70.0087 46.1656 69.8476 45.9262C69.4513 45.3575 68.8507 46.3196 68.5281 45.7007C68.0935 45.925 67.6078 46.0763 67.1 46.1456C67.1 46.1456 67.0141 46.2359 66.9772 46.276C66.9404 46.3162 67.0886 46.4057 67.1502 46.4054C67.8157 46.4032 68.4938 46.4708 69.2827 46.4981C69.8373 46.4962 70.5149 46.4439 71.1926 46.4016C71.1926 46.4016 71.3156 46.3311 71.3771 46.2909C71.321 46.1716 71.2416 46.0605 71.1418 45.9617C71.0182 45.8521 70.894 45.5726 70.6359 45.7835Z" fill="#0B70E3"/>
<path id="Vector_11" d="M130.104 50.1991C130.105 50.3591 130.106 50.7291 130.438 50.488C131.041 50.0959 131.028 50.0759 131.879 50.203C131.956 50.2176 132.036 50.2173 132.113 50.2022C132.458 50.201 133.014 50.4091 133.136 50.0487C133.258 49.6883 132.531 49.8908 132.419 49.5211L132.418 49.3411C131.986 49.1426 131.567 48.9841 131.1 49.3457C130.806 49.5249 130.488 49.6769 130.152 49.7989C130.119 49.9306 130.103 50.0647 130.104 50.1991Z" fill="#0B70E3"/>
<path id="Vector_12" d="M173.891 38.6486C173.764 38.6346 173.635 38.6351 173.509 38.6499C173.345 38.6247 173.176 38.6268 173.013 38.6561C172.85 38.6854 172.696 38.7412 172.56 38.8202C172.424 38.8993 172.31 38.9998 172.223 39.1158C172.137 39.2317 172.08 39.3607 172.057 39.4949C172.039 39.5641 172.039 39.6357 172.058 39.7049C172.133 39.9046 172.243 39.9142 172.403 39.7737C172.563 39.6331 172.821 39.2922 173.079 39.2314C173.338 39.1705 173.597 39.4096 173.856 39.4487C174.115 39.4878 174.3 39.3272 174.299 39.0572C174.309 39.008 174.306 38.9577 174.291 38.9095C174.276 38.8613 174.248 38.8164 174.209 38.7777C174.17 38.739 174.122 38.7075 174.067 38.6852C174.012 38.663 173.952 38.6505 173.891 38.6486Z" fill="#0B70E3"/>
<path id="Vector_13" d="M169.778 43.4028C169.666 43.6347 169.451 43.8244 169.176 43.9348C168.795 44.0861 168.807 44.1961 169.178 44.5048C169.342 44.6181 169.525 44.7118 169.721 44.783C169.792 44.57 169.928 44.3752 170.117 44.217C170.307 44.0588 170.543 43.9425 170.803 43.8792C171.148 43.7881 170.925 43.5488 170.801 43.4192C170.306 42.9109 170.085 42.9117 169.778 43.4028Z" fill="#0B70E3"/>
<path id="Vector_14" d="M63.3166 46.2086C63.1774 46.3145 63.0121 46.3954 62.8318 46.446C62.6515 46.4966 62.46 46.5157 62.2701 46.5022C61.8141 46.5038 61.3704 46.5053 60.9144 46.5069C60.7788 46.5073 60.656 46.6178 60.5329 46.6782C60.5697 46.7612 60.6429 46.8304 60.7384 46.8724C60.834 46.9145 60.9454 46.9266 61.0513 46.9064C61.3471 46.9054 61.6429 46.9044 61.951 46.9033L63.3067 46.8987C63.4669 46.8981 63.6628 46.5174 63.613 46.3876C63.5633 46.2578 63.4026 46.1183 63.3166 46.2086Z" fill="#0B70E3"/>
<path id="Vector_15" d="M39.4721 43.6005C39.4116 43.5576 39.3631 43.5046 39.3298 43.4453C39.2966 43.3859 39.2792 43.3214 39.279 43.2562C39.2788 43.1909 39.2957 43.1263 39.3285 43.0667C39.3614 43.0071 39.4096 42.9539 39.4697 42.9105C39.4932 42.8588 39.493 42.8021 39.4692 42.7505C39.3336 42.751 39.1729 42.6115 39.0745 42.6519C38.7741 42.7474 38.5266 42.928 38.3778 43.1603C38.229 43.3925 38.189 43.6606 38.2654 43.9147C38.6183 43.9336 38.9725 43.9324 39.3253 43.911C39.3504 43.9188 39.3772 43.9225 39.4041 43.9219C39.4309 43.9213 39.4574 43.9164 39.482 43.9075C39.5066 43.8986 39.5288 43.8859 39.5473 43.87C39.5658 43.8542 39.5803 43.8355 39.5899 43.8151C39.5996 43.7947 39.6042 43.773 39.6035 43.7512C39.6028 43.7294 39.5968 43.7079 39.5858 43.6879C39.5749 43.668 39.5592 43.65 39.5397 43.635C39.5202 43.62 39.4972 43.6083 39.4721 43.6005Z" fill="#0B70E3"/>
<path id="Vector_16" d="M127.009 49.4997C126.75 49.5006 126.479 49.7016 126.209 49.8225C126.141 49.8714 126.08 49.9251 126.024 49.9831C126.123 50.0628 126.21 50.2025 126.296 50.2122C126.826 50.2104 127.38 50.1085 127.825 50.4869C127.998 50.6263 128.146 50.6358 128.17 50.4257C128.197 50.2314 128.135 50.0359 127.996 49.8763C127.72 49.6745 127.376 49.5435 127.009 49.4997Z" fill="#0B70E3"/>
<path id="Vector_17" d="M125.421 50.2152C125.421 50.0952 125.321 49.8956 125.235 49.8859C124.95 49.8469 124.658 49.8479 124.372 49.8888C124.286 49.8891 124.213 50.0994 124.127 50.1997C124.041 50.3 124.128 50.5097 124.239 50.5693C124.386 50.6604 124.566 50.7095 124.751 50.7089C124.936 50.7082 125.116 50.6579 125.262 50.5658C125.303 50.5528 125.339 50.5331 125.37 50.5078C125.4 50.4826 125.423 50.4524 125.438 50.4193C125.453 50.3862 125.46 50.3509 125.457 50.3157C125.454 50.2806 125.442 50.2463 125.421 50.2152Z" fill="#0B70E3"/>
<path id="Vector_18" d="M139.746 47.766C140.016 47.525 140.262 47.2742 140.508 47.0133C140.546 46.96 140.575 46.9027 140.593 46.843C140.47 46.7835 140.346 46.6839 140.223 46.6743C139.459 46.6769 139.299 46.7675 139.301 47.4475C139.321 47.5781 139.363 47.7059 139.426 47.8271C139.426 47.8271 139.672 47.8262 139.746 47.766Z" fill="#0B70E3"/>
<path id="Vector_19" d="M125.375 51.1554C125.178 51.2361 124.994 51.3067 125.031 51.5866C125.069 51.8664 125.181 51.946 125.439 51.9452C125.516 51.9416 125.591 51.9239 125.658 51.8933C125.725 51.8628 125.782 51.8203 125.826 51.7691C125.87 51.7179 125.899 51.6592 125.91 51.5976C125.922 51.536 125.916 51.4731 125.894 51.4136C125.862 51.3262 125.791 51.2516 125.695 51.2039C125.6 51.1563 125.486 51.139 125.375 51.1554Z" fill="#0B70E3"/>
<path id="Vector_20" d="M93.658 49.3644C93.6923 49.5446 93.7866 49.7137 93.9309 49.8534C93.9919 49.8843 94.0624 49.9005 94.1344 49.9003C94.2063 49.9 94.2768 49.8833 94.3376 49.852C94.6573 49.6609 94.3365 49.542 94.2497 49.3823L94.0746 48.6529C93.6064 48.6845 93.62 49.0445 93.658 49.3644Z" fill="#0B70E3"/>
<path id="Vector_21" d="M27.0316 49.2933C27.0316 49.2933 26.8718 49.4039 26.8719 49.4239C26.8719 49.4439 26.9959 49.6634 27.0822 49.6731C27.3034 49.6924 27.5267 49.6917 27.7477 49.6709C27.8905 49.6909 28.0365 49.6904 28.1791 49.6694C28.3061 49.6177 28.419 49.5459 28.5111 49.4582C28.3877 49.3987 28.2641 49.2891 28.1408 49.2795C27.7711 49.2641 27.4006 49.2687 27.0316 49.2933Z" fill="#0B70E3"/>
<path id="Vector_22" d="M106.794 45.3392C106.794 45.3392 106.905 45.1688 106.954 45.0486C106.461 45.0503 105.955 45.0521 105.462 45.0538C105.401 45.054 105.34 45.2242 105.315 45.3243C105.291 45.4244 105.427 45.4539 105.476 45.4537C105.918 45.4359 106.358 45.3976 106.794 45.3392Z" fill="#0B70E3"/>
<path id="Vector_23" d="M176.583 43.8893C176.583 43.7693 176.471 43.5597 176.372 43.5501C176.028 43.5308 175.682 43.532 175.337 43.5536C175.668 43.8458 176.046 44.1002 176.461 44.3098C176.515 44.2499 176.554 44.1818 176.575 44.1096C176.596 44.0373 176.599 43.9624 176.583 43.8893Z" fill="#0B70E3"/>
<path id="Vector_24" d="M175.337 43.4937L175.337 43.4437L175.337 43.5037C175.337 43.5003 175.337 43.497 175.337 43.4937Z" fill="#0B70E3"/>
<path id="Vector_25" d="M163.866 5.0728C164.161 4.85178 164.506 4.6706 164.504 4.2406C164.488 4.17705 164.459 4.11625 164.417 4.0609C164.417 4.0609 164.307 4.06128 164.245 3.99149C164.067 4.08233 163.919 4.20609 163.813 4.35254C163.706 4.49899 163.644 4.66389 163.631 4.8336C163.636 4.90256 163.666 4.96873 163.718 5.02331C163.718 5.02331 163.842 5.09288 163.866 5.0728Z" fill="#0B70E3"/>
<path id="Vector_26" d="M158.47 37.7515C158.31 37.8821 158.175 38.0426 158.41 38.2317L158.904 38.62L159.1 38.1794L159.098 37.8594C159.098 37.7294 158.999 37.6097 158.949 37.4899C158.78 37.5654 158.62 37.653 158.47 37.7515Z" fill="#0B70E3"/>
<path id="Vector_27" d="M118.881 51.3377C118.767 51.2803 118.647 51.2305 118.523 51.1889C118.264 51.1898 118.116 51.3003 118.068 51.5105C118.019 51.7206 118.168 51.9901 118.489 52.009L118.881 51.5177L118.881 51.3377Z" fill="#0B70E3"/>
<path id="Vector_28" d="M89.2083 49.1897C88.9872 49.3609 88.778 49.5419 88.5816 49.7318C88.7139 49.8053 88.8544 49.8684 89.0013 49.9204C89.2603 49.9795 89.383 49.8191 89.4439 49.6089C89.5048 49.3987 89.2942 49.0694 89.2083 49.1897Z" fill="#0B70E3"/>
<path id="Vector_29" d="M133.01 49.2791C133.151 49.1345 133.24 48.9612 133.267 48.7782C133.267 48.7282 133.057 48.559 133.044 48.569C132.881 48.6516 132.74 48.7613 132.632 48.8909C132.525 49.0206 132.452 49.1672 132.418 49.3212C132.617 49.3491 132.82 49.3346 133.01 49.2791Z" fill="#0B70E3"/>
<path id="Vector_30" d="M94.8874 48.4501C94.8073 48.2913 94.7119 48.1378 94.6023 47.9911C94.5281 47.9114 94.3678 47.8819 94.2567 47.8423C94.1968 47.9593 94.1478 48.0799 94.1101 48.2028L94.1113 48.5728C94.1687 48.5776 94.2265 48.5774 94.2839 48.5722C94.481 48.5415 94.678 48.4909 94.8874 48.4501Z" fill="#0B70E3"/>
<path id="Vector_31" d="M160.961 6.0928C160.736 6.07358 160.509 6.07436 160.283 6.09513C160.197 6.09542 160.136 6.25563 160.075 6.33584C160.221 6.43738 160.407 6.4929 160.599 6.49223C160.791 6.49157 160.977 6.43478 161.122 6.33224C161.14 6.29006 161.14 6.24431 161.122 6.20224C161.085 6.17237 161.023 6.10258 160.961 6.0928Z" fill="#0B70E3"/>
<path id="Vector_32" d="M138.377 47.3307C138.475 47.3303 138.673 47.4296 138.697 47.3996C138.776 47.2873 138.811 47.1578 138.795 47.0292C138.793 46.9688 138.772 46.9097 138.734 46.8577C138.696 46.8058 138.642 46.7627 138.578 46.7327C138.513 46.7027 138.44 46.6868 138.366 46.6866C138.291 46.6864 138.218 46.7018 138.153 46.7314C137.943 46.7921 137.931 46.8922 138.08 47.0317C138.228 47.1712 138.265 47.251 138.377 47.3307Z" fill="#0B70E3"/>
<path id="Vector_33" d="M134.444 47.1242C134.493 47.025 134.522 46.9203 134.53 46.8139C134.406 46.7673 134.271 46.7439 134.135 46.7452C133.913 46.746 133.766 46.9065 133.791 47.1564L133.953 47.4958L134.137 47.3952C134.255 47.3174 134.359 47.2261 134.444 47.1242Z" fill="#0B70E3"/>
<path id="Vector_34" d="M169.91 45.9923C169.932 46.0039 169.958 46.0099 169.984 46.0099C170.011 46.0098 170.036 46.0035 170.058 45.9918C170.146 45.8724 170.202 45.7396 170.222 45.6018C170.243 45.464 170.228 45.3242 170.179 45.1914C170.175 45.103 170.129 45.0192 170.051 44.9578C169.972 44.8965 169.868 44.8624 169.759 44.8628L169.762 45.8628C169.762 45.8628 169.861 45.9125 169.91 45.9923Z" fill="#0B70E3"/>
<path id="Vector_35" d="M169.758 44.8328L169.758 44.7828C169.758 44.7828 169.745 44.8229 169.758 44.8328Z" fill="#0B70E3"/>
<path id="Vector_36" d="M160.625 5.19398C160.835 5.14567 161.038 5.07787 161.229 4.99191L160.735 4.77361C160.501 4.77441 160.353 4.77492 160.205 4.85543C160.138 4.88941 160.076 4.92992 160.021 4.97606C160.066 5.03199 160.125 5.07951 160.194 5.11547C160.327 5.17 160.476 5.19697 160.625 5.19398Z" fill="#0B70E3"/>
<path id="Vector_37" d="M109.124 45.3612C109.195 45.2511 109.244 45.1329 109.271 45.0107C109.277 44.9507 109.266 44.8904 109.237 44.8349C109.209 44.7795 109.164 44.7305 109.107 44.6923C109.049 44.6541 108.982 44.6277 108.909 44.6156C108.836 44.6035 108.761 44.6059 108.69 44.6227C108.604 44.623 108.543 44.7632 108.457 44.8635L108.939 45.2818C108.993 45.3178 109.056 45.3447 109.124 45.3612Z" fill="#0B70E3"/>
<path id="Vector_38" d="M111.131 44.9743C111.263 44.9458 111.384 44.8941 111.488 44.8231C111.473 44.7451 111.42 44.6752 111.341 44.6287C111.263 44.5822 111.165 44.5627 111.068 44.5745C110.884 44.5752 110.736 44.5757 110.6 44.5761C110.533 44.5967 110.473 44.6314 110.428 44.6767C110.428 44.6767 110.33 44.7871 110.342 44.797C110.354 44.807 110.441 44.9167 110.503 44.9265C110.709 44.9623 110.92 44.9784 111.131 44.9743Z" fill="#0B70E3"/>
<path id="Vector_39" d="M47.8066 44.5219C47.8066 44.5219 47.5721 44.4127 47.4857 44.373C47.3342 44.358 47.181 44.3586 47.0297 44.3746C46.8977 44.4179 46.7735 44.4755 46.6605 44.5458C46.7487 44.6288 46.853 44.6993 46.9694 44.7548C47.1088 44.7646 47.249 44.7641 47.3884 44.7533C47.4347 44.7619 47.4827 44.7626 47.5293 44.7554C47.576 44.7482 47.6203 44.7333 47.6596 44.7116C47.6989 44.6898 47.7322 44.6618 47.7575 44.6291C47.7828 44.5965 47.7995 44.56 47.8066 44.5219Z" fill="#0B70E3"/>
<path id="Vector_40" d="M13.4629 42.2799C13.2534 42.2806 13.0439 42.2814 13.0571 42.5413C13.0571 42.5413 13.2916 42.6305 13.378 42.6602C13.5413 42.6805 13.7077 42.6799 13.8709 42.6585C13.9572 42.6582 14.0183 42.508 14.092 42.4278C14.1656 42.3475 13.9683 42.3082 13.9067 42.3084C13.76 42.2889 13.6116 42.2794 13.4629 42.2799Z" fill="#0B70E3"/>
<path id="Vector_41" d="M175.104 15.1342C175.104 15.1342 174.943 15.0348 174.857 14.9751L174.735 15.3255L174.933 15.6448C175.001 15.4773 175.058 15.3068 175.104 15.1342Z" fill="#0B70E3"/>
<path id="Vector_42" d="M166.688 5.01314C166.614 4.9334 166.54 4.79365 166.441 4.78399C166.279 4.80611 166.124 4.85424 165.986 4.92556C166.097 5.01517 166.196 5.14483 166.294 5.1445C166.393 5.14416 166.553 5.05361 166.688 5.01314Z" fill="#0B70E3"/>
<path id="Vector_43" d="M123.751 51.8209C123.899 52.0904 124.121 51.9797 124.318 51.919C124.515 51.8583 124.428 51.8386 124.478 51.7984C124.302 51.7159 124.116 51.6495 123.922 51.6004C123.922 51.6004 123.812 51.7507 123.751 51.8209Z" fill="#0B70E3"/>
<path id="Vector_44" d="M120.026 51.1638C119.903 51.1642 119.681 51.165 119.645 51.2851C119.522 51.5855 119.794 51.5646 119.978 51.574C120.11 51.5833 120.242 51.5829 120.373 51.5726C120.36 51.3526 120.261 51.193 120.026 51.1638Z" fill="#0B70E3"/>
<path id="Vector_45" d="M121.797 49.8477L121.415 50.029C121.526 50.0986 121.65 50.2182 121.773 50.2177C121.896 50.2173 122.019 50.1069 122.155 50.0464L121.797 49.8477Z" fill="#0B70E3"/>
<path id="Vector_46" d="M90.5288 49.6951C90.7027 49.7704 90.8843 49.8334 91.0717 49.8833C91.0717 49.8833 91.182 49.7129 91.231 49.6227C91.1083 49.5825 90.9887 49.5362 90.8731 49.484L90.5288 49.6951Z" fill="#0B70E3"/>
<path id="Vector_47" d="M83.0594 49.4908L83.2455 49.8602C83.3191 49.7399 83.442 49.6295 83.4416 49.5195C83.4412 49.4095 83.3298 49.2799 83.2678 49.1601L83.0594 49.4908Z" fill="#0B70E3"/>
<path id="Vector_48" d="M91.9536 48.2902L91.8068 48.6307L92.0052 48.96C92.0871 48.7943 92.1524 48.6235 92.2006 48.4494C92.2006 48.4494 92.0401 48.3499 91.9536 48.2902Z" fill="#0B70E3"/>
<path id="Vector_49" d="M91.0181 48.6435C90.8334 48.6955 90.6525 48.7562 90.4765 48.8253C90.5876 48.8949 90.6866 49.0046 90.8099 49.0142C90.9332 49.0237 91.0438 48.9434 91.1669 48.9029C91.1291 48.8123 91.0792 48.7253 91.0181 48.6435Z" fill="#0B70E3"/>
<path id="Vector_50" d="M137.158 47.8649C137.257 47.8145 137.404 47.754 137.416 47.674C137.415 47.374 137.341 47.1742 137.008 47.1554L137.01 47.7254C137.01 47.7254 137.146 47.8749 137.158 47.8649Z" fill="#0B70E3"/>
<path id="Vector_51" d="M141.518 46.8799C141.484 46.8239 141.438 46.7733 141.382 46.7303C141.294 46.9021 141.225 47.0797 141.174 47.261C141.174 47.261 141.335 47.3805 141.421 47.4302C141.655 47.2694 141.605 47.0796 141.518 46.8799Z" fill="#0B70E3"/>
<path id="Vector_52" d="M135.9 47.4092C136.133 47.2784 136.046 47.0787 135.972 46.9089C135.938 46.853 135.892 46.8023 135.836 46.7594L135.64 47.0701L135.764 47.4197C135.764 47.4197 135.863 47.4293 135.9 47.4092Z" fill="#0B70E3"/>
<path id="Vector_53" d="M65.9736 44.7095C66.0074 44.8346 66.0706 44.9532 66.1596 45.0588C66.2332 44.9486 66.3561 44.8382 66.3557 44.7182C66.3553 44.5982 66.244 44.4885 66.1819 44.3688C66.1084 44.479 65.9732 44.5895 65.9736 44.7095Z" fill="#0B70E3"/>
<path id="Vector_54" d="M63.1152 44.9593C63.1145 44.7693 62.5596 44.6912 62.4247 44.8817C62.4247 44.8817 62.425 44.9617 62.4251 45.0017C62.4253 45.0417 62.7831 45.1504 62.98 45.0697C63.1769 44.9891 63.103 44.9993 63.1152 44.9593Z" fill="#0B70E3"/>
<path id="Vector_55" d="M51.3202 44.8298C51.115 44.8561 50.9131 44.897 50.7167 44.9519C50.8896 45.0613 51.0009 45.1809 51.1119 45.1906C51.2228 45.2002 51.3581 45.0997 51.4935 45.0592C51.4316 44.9795 51.3694 44.8197 51.3202 44.8298Z" fill="#0B70E3"/>
<path id="Vector_56" d="M49.0904 45.1175C49.1644 45.1172 49.2011 45.0471 49.2626 45.0069C49.0943 44.9267 48.9165 44.8603 48.732 44.8087C48.732 44.8087 48.6092 44.9591 48.5602 45.0293C48.7091 45.3288 48.9058 45.1781 49.0904 45.1175Z" fill="#0B70E3"/>
<path id="Vector_57" d="M41.3936 43.2739L41.0356 43.0852L40.6541 43.2565C40.7652 43.3261 40.8889 43.4457 41.0121 43.4452C41.1354 43.4448 41.209 43.3546 41.3936 43.2739Z" fill="#0B70E3"/>
<path id="Vector_58" d="M56.611 42.3016C56.5742 42.2439 56.5285 42.1903 56.4749 42.1421C56.393 42.3112 56.3276 42.4853 56.2795 42.6628C56.2795 42.6628 56.4401 42.7822 56.5142 42.832C56.7357 42.7112 56.6857 42.5214 56.611 42.3016Z" fill="#0B70E3"/>
<path id="Vector_59" d="M17.4314 42.2763C17.3145 42.3195 17.2065 42.3772 17.1115 42.4474C17.2104 42.5171 17.3217 42.6367 17.4327 42.6463C17.5001 42.646 17.5668 42.6341 17.6283 42.6115C17.6898 42.5889 17.7448 42.556 17.7896 42.5151C17.9126 42.4346 17.6901 42.2354 17.4314 42.2763Z" fill="#0B70E3"/>
<path id="Vector_60" d="M21.9457 39.7308C21.8225 39.7312 21.699 39.6516 21.5755 39.602L21.2311 39.8032C21.4098 39.8723 21.5955 39.9286 21.7863 39.9713C21.7863 39.9713 21.8967 39.8209 21.9457 39.7308Z" fill="#0B70E3"/>
<path id="Vector_61" d="M170.858 38.559C170.932 38.3929 170.99 38.2221 171.029 38.0484C171.029 38.0484 170.881 37.9389 170.807 37.8892C170.561 38.04 170.648 38.2397 170.722 38.4095C170.757 38.4655 170.803 38.5161 170.858 38.559Z" fill="#0B70E3"/>
<path id="Vector_62" d="M156.808 38.2973C156.855 38.4156 156.927 38.5268 157.018 38.6265C157.11 38.5287 157.185 38.4207 157.239 38.3058C157.221 38.175 157.152 38.0524 157.041 37.9565C156.966 37.8167 156.77 38.0374 156.808 38.2973Z" fill="#0B70E3"/>
<path id="Vector_63" d="M9.36424 36.674C9.29662 36.7956 9.24741 36.9233 9.21766 37.0545C9.21794 37.1345 9.36611 37.214 9.45265 37.2937C9.52001 37.1728 9.56524 37.0446 9.58691 36.9132C9.58664 36.8332 9.45082 36.7637 9.36424 36.674Z" fill="#0B70E3"/>
<path id="Vector_64" d="M177.962 29.2045C177.962 29.2045 177.789 29.1051 177.691 29.0554L177.544 29.3859L177.742 29.7053C177.836 29.5446 177.909 29.3769 177.962 29.2045Z" fill="#0B70E3"/>
<path id="Vector_65" d="M170.976 26.0985C170.865 26.0289 170.766 25.9192 170.642 25.8996C170.509 25.9011 170.381 25.9446 170.285 26.0209C170.163 26.1313 170.373 26.3106 170.631 26.2797C170.89 26.2488 170.865 26.1589 170.976 26.0985Z" fill="#0B70E3"/>
<path id="Vector_66" d="M115.861 54.8981C115.861 54.9481 115.96 55.0378 116.022 55.0376C116.083 55.0373 116.132 54.9572 116.194 54.917L116.033 54.7675L115.861 54.8981Z" fill="#0B70E3"/>
<path id="Vector_67" d="M152.386 53.5325L152.522 53.5321C152.522 53.5321 152.595 53.4418 152.583 53.4119C152.571 53.3819 152.509 53.3221 152.472 53.2822L152.386 53.5325Z" fill="#0B70E3"/>
<path id="Vector_68" d="M92.4892 53.5284C92.4892 53.5284 92.3786 53.6088 92.3417 53.6489C92.3049 53.689 92.4532 53.7985 92.4778 53.7884C92.7241 53.7276 92.7237 53.6176 92.4892 53.5284Z" fill="#0B70E3"/>
<path id="Vector_69" d="M117.874 52.5212C117.702 52.6018 117.665 52.7019 117.789 52.7815C117.912 52.861 117.887 52.7811 117.937 52.781C117.986 52.7808 118.01 52.6907 117.998 52.6607C117.985 52.6308 117.899 52.5111 117.874 52.5212Z" fill="#0B70E3"/>
<path id="Vector_70" d="M36.0887 52.4622L36.0891 52.5922C36.0891 52.5922 36.2003 52.6618 36.2372 52.6517C36.2742 52.6416 36.3971 52.5512 36.3847 52.5412C36.3102 52.3715 36.187 52.3719 36.0887 52.4622Z" fill="#0B70E3"/>
<path id="Vector_71" d="M117.293 51.8632C117.293 51.8632 117.392 51.9328 117.428 51.9227C117.484 51.8915 117.533 51.8543 117.576 51.8122L117.305 51.7331L117.293 51.8632Z" fill="#0B70E3"/>
<path id="Vector_72" d="M96.6982 51.804L96.5625 51.7444L96.415 51.8749L96.551 52.0045L96.6982 51.804Z" fill="#0B70E3"/>
<path id="Vector_73" d="M121.011 50.8203L121.011 50.9403L121.135 51.0699L121.27 50.9495L121.011 50.8203Z" fill="#0B70E3"/>
<path id="Vector_74" d="M87.6942 49.7049C87.6943 49.7549 87.8055 49.8345 87.8672 49.8443C87.9288 49.8541 87.9778 49.7639 88.027 49.7137L87.8785 49.5642L87.6942 49.7049Z" fill="#0B70E3"/>
<path id="Vector_75" d="M41.0958 49.865L41.2318 49.9845L41.3791 49.814L41.2433 49.7545L41.0958 49.865Z" fill="#0B70E3"/>
<path id="Vector_76" d="M37.9534 49.9558C37.9534 49.9558 38.089 49.9554 38.1013 49.9553L38.2358 49.6548C38.0634 49.6954 37.9033 49.716 37.9534 49.9558Z" fill="#0B70E3"/>
<path id="Vector_77" d="M38.2359 49.6848L38.2976 49.6846L38.2973 49.6246L38.2359 49.6848Z" fill="#0B70E3"/>
<path id="Vector_78" d="M169.403 49.004C169.403 49.004 169.477 49.1238 169.527 49.1236C169.576 49.1234 169.613 49.0533 169.662 49.0231L169.403 48.914L169.403 49.004Z" fill="#0B70E3"/>
<path id="Vector_79" d="M38.4443 49.3641C38.3704 49.3644 38.3463 49.5345 38.3097 49.6446C38.4266 49.6281 38.5342 49.5822 38.6174 49.5135C38.7031 49.3632 38.5796 49.2637 38.4443 49.3641Z" fill="#0B70E3"/>
<path id="Vector_80" d="M166.751 48.4231C166.751 48.4231 166.641 48.5035 166.579 48.5437C166.518 48.5839 166.678 48.6834 166.74 48.6832C166.802 48.683 166.851 48.6028 166.912 48.5626C166.974 48.5224 166.801 48.433 166.751 48.4231Z" fill="#0B70E3"/>
<path id="Vector_81" d="M87.2722 48.8663L87.396 49.0059L87.5434 48.8754L87.3334 48.7361L87.2722 48.8663Z" fill="#0B70E3"/>
<path id="Vector_82" d="M142.281 46.7272L142.208 46.9775L142.344 46.977C142.344 46.977 142.405 46.8868 142.405 46.8568C142.371 46.8093 142.33 46.7657 142.281 46.7272Z" fill="#0B70E3"/>
<path id="Vector_83" d="M136.822 46.816C136.698 46.7364 136.588 46.8168 136.662 46.9566C136.737 47.0963 136.835 47.046 136.946 47.0856C136.94 46.9875 136.896 46.8934 136.822 46.816Z" fill="#0B70E3"/>
<path id="Vector_84" d="M36.2926 47.2515C36.2925 47.2015 36.1936 47.1218 36.1443 47.112C36.0949 47.1021 36.0336 47.1823 35.9721 47.2226C35.9106 47.2628 36.0712 47.3622 36.1205 47.372C36.1698 47.3819 36.2928 47.2915 36.2926 47.2515Z" fill="#0B70E3"/>
<path id="Vector_85" d="M129.833 46.65L129.956 46.5196L129.758 46.3703L129.685 46.5006L129.833 46.65Z" fill="#0B70E3"/>
<path id="Vector_86" d="M92.5274 46.7182C92.5274 46.7182 92.6134 46.6279 92.601 46.598C92.5885 46.568 92.5019 46.4583 92.4773 46.4684C92.4526 46.4785 92.2806 46.6291 92.3918 46.7087C92.503 46.7883 92.4904 46.7184 92.5274 46.7182Z" fill="#0B70E3"/>
<path id="Vector_87" d="M76.7992 46.0823C76.6269 46.1529 76.6026 46.243 76.7137 46.3126C76.8249 46.3822 76.8123 46.3123 76.8616 46.3121C76.9109 46.3119 76.9599 46.2317 76.9599 46.2317C76.9599 46.2317 76.8238 46.0722 76.7992 46.0823Z" fill="#0B70E3"/>
<path id="Vector_88" d="M75.7275 46.236C75.7277 46.286 75.8266 46.3756 75.8882 46.3754C75.9498 46.3752 75.974 46.2351 76.0233 46.235L75.8749 46.0855L75.7275 46.236Z" fill="#0B70E3"/>
<path id="Vector_89" d="M59.1864 45.7628L59.0764 46.0332C59.2243 46.0326 59.3722 46.0321 59.3343 45.7723C59.3343 45.7523 59.1987 45.7427 59.1864 45.7628Z" fill="#0B70E3"/>
<path id="Vector_90" d="M142.841 44.6153C142.841 44.5453 142.668 44.5259 142.557 44.4963C142.446 44.4667 142.558 44.7163 142.694 44.7658C142.829 44.8154 142.928 44.735 142.841 44.6153Z" fill="#0B70E3"/>
<path id="Vector_91" d="M142.557 44.4963L142.557 44.4363C142.557 44.4363 142.533 44.4864 142.557 44.4963Z" fill="#0B70E3"/>
<path id="Vector_92" d="M107.04 44.9984L106.966 44.9986L106.966 45.0486L107.04 44.9984Z" fill="#0B70E3"/>
<path id="Vector_93" d="M107.322 44.7274C107.322 44.7274 107.187 44.7278 107.174 44.7279L107.04 45.0083C107.2 44.9778 107.36 44.9672 107.322 44.7274Z" fill="#0B70E3"/>
<path id="Vector_94" d="M150.284 44.2098L150.025 44.1307L150.025 44.2606C150.025 44.2606 150.124 44.3303 150.161 44.3202C150.198 44.3101 150.235 44.2499 150.284 44.2098Z" fill="#0B70E3"/>
<path id="Vector_95" d="M45.5376 44.1397C45.5376 44.1397 45.4633 44.0399 45.4139 43.9901L45.2418 44.1307C45.242 44.1807 45.3408 44.2604 45.4025 44.2701C45.4642 44.2799 45.5378 44.1897 45.5376 44.1397Z" fill="#0B70E3"/>
<path id="Vector_96" d="M40.7809 44.286C40.7809 44.286 40.8792 44.2057 40.9283 44.1655L40.7184 44.0362L40.7188 44.1562C40.7188 44.1562 40.7315 44.2762 40.7809 44.286Z" fill="#0B70E3"/>
<path id="Vector_97" d="M38.094 44.2353C38.094 44.2353 38.192 44.065 38.2286 43.9548L37.8219 43.9562C37.8471 44.1161 37.86 44.2861 38.094 44.2353Z" fill="#0B70E3"/>
<path id="Vector_98" d="M174.954 43.1549C174.941 43.2011 174.941 43.2489 174.954 43.2949C175.053 43.3446 175.164 43.3842 175.263 43.4239C175.237 43.264 175.212 43.1141 174.954 43.1549Z" fill="#0B70E3"/>
<path id="Vector_99" d="M161.558 43.361C161.558 43.361 161.706 43.3604 161.718 43.3604L161.852 43.0699C161.68 43.1005 161.52 43.1211 161.558 43.361Z" fill="#0B70E3"/>
<path id="Vector_100" d="M55.7253 42.7847C55.6385 42.625 55.5398 42.6053 55.4539 42.7156C55.368 42.8259 55.4542 42.8056 55.4544 42.8456C55.4545 42.8856 55.5532 42.9153 55.5778 42.9052C55.6417 42.8789 55.6934 42.8367 55.7253 42.7847Z" fill="#0B70E3"/>
<path id="Vector_101" d="M43.2531 42.8275C43.1786 42.6678 43.0799 42.6381 42.9817 42.7585L42.9821 42.8885C42.9821 42.8885 43.081 42.9581 43.1056 42.948C43.1694 42.9218 43.2211 42.8795 43.2531 42.8275Z" fill="#0B70E3"/>
<path id="Vector_102" d="M40.232 42.3579L40.2324 42.4879C40.2324 42.4879 40.3189 42.5576 40.3559 42.5475C40.3928 42.5374 40.4542 42.4772 40.5034 42.437L40.232 42.3579Z" fill="#0B70E3"/>
<path id="Vector_103" d="M44.901 41.7818C44.901 41.7818 44.7903 41.8622 44.7412 41.9124C44.6921 41.9626 44.8527 42.072 44.8773 42.0619C45.1605 41.991 45.1601 41.881 44.901 41.7818Z" fill="#0B70E3"/>
<path id="Vector_104" d="M171.259 40.2676L171.382 40.2672C171.382 40.2672 171.456 40.1769 171.382 40.1472C171.307 40.1174 171.307 40.0474 171.27 39.9976L171.259 40.2676Z" fill="#0B70E3"/>
<path id="Vector_105" d="M160.246 38.1755L160.381 38.045L160.196 37.9057L160.122 38.0359L160.246 38.1755Z" fill="#0B70E3"/>
<path id="Vector_106" d="M170.216 30.9111C170.216 30.9611 170.315 31.0608 170.364 31.0606C170.414 31.0605 170.487 30.9702 170.573 30.9099C170.659 30.8496 170.462 30.7703 170.413 30.7705C170.363 30.7706 170.265 30.911 170.216 30.9111Z" fill="#0B70E3"/>
<path id="Vector_107" d="M169.341 31.0041C169.341 31.0041 169.44 31.0038 169.489 31.0036C169.538 31.0035 169.6 30.9132 169.587 30.9133C169.575 30.9133 169.488 30.7736 169.464 30.7837C169.439 30.7938 169.279 30.9144 169.341 31.0041Z" fill="#0B70E3"/>
<path id="Vector_108" d="M176.326 15.6501C176.326 15.6501 176.486 15.5395 176.473 15.5096C176.398 15.2798 176.275 15.2703 176.19 15.5106C176.177 15.5306 176.276 15.6003 176.326 15.6501Z" fill="#0B70E3"/>
<path id="Vector_109" d="M176.446 14.6496L176.273 14.5102L176.199 14.6405L176.323 14.7701L176.446 14.6496Z" fill="#0B70E3"/>
<path id="Vector_110" d="M18.1615 14.4336C18.1924 14.3939 18.2132 14.3497 18.2226 14.3034C18.2224 14.2534 18.1236 14.1637 18.0989 14.1738C18.0743 14.1839 17.9147 14.3444 18.0259 14.4241C18.137 14.5037 18.1122 14.4338 18.1615 14.4336Z" fill="#0B70E3"/>
<path id="Vector_111" d="M157.19 6.05576C157.17 6.05049 157.148 6.05057 157.128 6.05598L157.19 6.05576Z" fill="#0B70E3"/>
<path id="Vector_112" d="M157.3 5.79539C157.238 5.87362 157.2 5.96302 157.19 6.05577C157.288 6.05543 157.411 5.99501 157.461 5.92484C157.51 5.85467 157.423 5.71497 157.3 5.79539Z" fill="#0B70E3"/>
<path id="Vector_113" d="M166.303 4.08447L166.032 4.0154L166.032 4.1454C166.032 4.1454 166.131 4.20506 166.155 4.14497C166.18 4.08489 166.254 4.12463 166.303 4.08447Z" fill="#0B70E3"/>
<path id="Vector_114" d="M165.317 4.03786L165.181 3.92832L165.034 4.04883L165.17 4.16836L165.317 4.03786Z" fill="#0B70E3"/>
<path id="Vector_115" d="M143.654 1.52225C143.654 1.52225 143.58 1.42251 143.531 1.37268L143.358 1.50327L143.495 1.6628C143.568 1.61255 143.654 1.57225 143.654 1.52225Z" fill="#0B70E3"/>
<path id="Vector_116" d="M116.847 54.8247C116.847 54.8247 116.847 54.9047 116.847 54.9547C116.847 55.0047 116.946 55.0244 116.983 55.0142C117.037 54.9856 117.083 54.9479 117.118 54.9038C117.031 54.7541 116.933 54.7244 116.847 54.8247Z" fill="#0B70E3"/>
</g>
</g>
</g>
</g>
</g>
<defs>
<clipPath id="clip0_467_2">
<rect width="53.94" height="177.866" fill="white" transform="translate(177.865 0.884705) rotate(89.8031)"/>
</clipPath>
</defs>
</svg>
